<?xml version="1.0" encoding="utf-8"?>
<!-- Generator: Adobe Illustrator 26.5.0, SVG Export Plug-In . SVG Version: 6.00 Build 0)  -->
<svg version="1.1" id="Layer_1" xmlns="http://www.w3.org/2000/svg" xmlns:xlink="http://www.w3.org/1999/xlink" x="0px" y="0px"
	 viewBox="0 0 700 700" style="enable-background:new 0 0 700 700;" xml:space="preserve">
<style type="text/css">
	.st0{fill:#A5A5A5;}
	.st1{clip-path:url(#SVGID_00000053511605807501525450000004054180574594821508_);}
	.st2{clip-path:url(#SVGID_00000099637334128480147550000006502223707269145791_);}
	
		.st3{fill:none;stroke:#FFFFFF;stroke-width:0.7229;stroke-linecap:round;stroke-miterlimit:10;stroke-dasharray:0,1.5906,0,0,0,1.2369;}
	
		.st4{fill:none;stroke:#FFFFFF;stroke-width:0.8506;stroke-linecap:round;stroke-miterlimit:10;stroke-dasharray:0,1.8712,0,0,0,1.4552;}
	
		.st5{fill:none;stroke:#FFFFFF;stroke-width:1.0006;stroke-linecap:round;stroke-miterlimit:10;stroke-dasharray:0,2.2014,0,0,0,1.7121;}
	
		.st6{fill:none;stroke:#FFFFFF;stroke-width:1.1772;stroke-linecap:round;stroke-miterlimit:10;stroke-dasharray:0,2.5899,0,0,0,2.0141;}
	
		.st7{fill:none;stroke:#FFFFFF;stroke-width:1.385;stroke-linecap:round;stroke-miterlimit:10;stroke-dasharray:0,3.047,0,0,0,2.3696;}
	
		.st8{fill:none;stroke:#FFFFFF;stroke-width:1.6294;stroke-linecap:round;stroke-miterlimit:10;stroke-dasharray:0,3.5847,0,0,0,2.7878;}
	
		.st9{fill:none;stroke:#FFFFFF;stroke-width:1.917;stroke-linecap:round;stroke-miterlimit:10;stroke-dasharray:0,4.2173,0,0,0,3.2797;}
	
		.st10{fill:none;stroke:#FFFFFF;stroke-width:2.2552;stroke-linecap:round;stroke-miterlimit:10;stroke-dasharray:0,4.9615,0,0,0,3.8584;}
	
		.st11{fill:none;stroke:#FFFFFF;stroke-width:2.6532;stroke-linecap:round;stroke-miterlimit:10;stroke-dasharray:0,5.837,0,0,0,4.5393;}
	
		.st12{fill:none;stroke:#FFFFFF;stroke-width:3.1214;stroke-linecap:round;stroke-miterlimit:10;stroke-dasharray:0,6.8672,0,0,0,5.3404;}
	
		.st13{fill:none;stroke:#FFFFFF;stroke-width:3.6723;stroke-linecap:round;stroke-miterlimit:10;stroke-dasharray:0,8.079,0,0,0,6.2829;}
	
		.st14{fill:none;stroke:#FFFFFF;stroke-width:4.3203;stroke-linecap:round;stroke-miterlimit:10;stroke-dasharray:0,9.5047,0,0,0,7.3916;}
	
		.st15{fill:none;stroke:#FFFFFF;stroke-width:5.0827;stroke-linecap:round;stroke-miterlimit:10;stroke-dasharray:0,11.182,0,0,0,8.696;}
	
		.st16{fill:none;stroke:#FFFFFF;stroke-width:5.9796;stroke-linecap:round;stroke-miterlimit:10;stroke-dasharray:0,13.1553,0,0,0,10.2306;}
	
		.st17{fill:none;stroke:#FFFFFF;stroke-width:7.0349;stroke-linecap:round;stroke-miterlimit:10;stroke-dasharray:0,15.4768,0,0,0,12.036;}
	
		.st18{fill:none;stroke:#FFFFFF;stroke-width:8.2764;stroke-linecap:round;stroke-miterlimit:10;stroke-dasharray:0,18.2079,0,0,0,14.16;}
</style>
<g id="Layer_1_00000177484154856662829530000000858653464840240784_">
	<rect y="-0.7" class="st0" width="704" height="701.2"/>
</g>
<g>
	<defs>
		<rect id="SVGID_1_" width="704" height="700.5"/>
	</defs>
	<clipPath id="SVGID_00000053513072191472777390000009094385085905027475_">
		<use xlink:href="#SVGID_1_"  style="overflow:visible;"/>
	</clipPath>
	<g style="clip-path:url(#SVGID_00000053513072191472777390000009094385085905027475_);">
		<defs>
			<rect id="SVGID_00000103969983770820579410000003910603196571443093_" x="58" y="-46" width="576.8" height="746.5"/>
		</defs>
		<clipPath id="SVGID_00000056417764472278649120000007128348328369815183_">
			<use xlink:href="#SVGID_00000103969983770820579410000003910603196571443093_"  style="overflow:visible;"/>
		</clipPath>
		
			<g id="Layer_2_00000112631139504076096060000015697956277051016074_" style="clip-path:url(#SVGID_00000056417764472278649120000007128348328369815183_);">
			<g>
				<g>
					<g>
						<path class="st3" d="M346.9,425.1l-3.9,2.3c-3.1,1.8-7.2,0.7-9-2.4l-2.4-4.2c-0.1-0.1,0-0.3,0.1-0.3l3.9-2.3
							c3.1-1.8,7.2-0.7,9,2.4l2.4,4.2C347.1,424.9,347,425,346.9,425.1z"/>
					</g>
					<g>
						<path class="st4" d="M348.5,424.4l-4.2,3.2c-3.4,2.6-8.2,1.9-10.8-1.5l-3.4-4.5c-0.1-0.1-0.1-0.3,0.1-0.4l4.2-3.2
							c3.4-2.6,8.3-1.9,10.8,1.5l3.4,4.5C348.7,424.1,348.6,424.3,348.5,424.4z"/>
					</g>
					<g>
						<path class="st5" d="M350.3,423.4l-4.5,4.3c-3.6,3.5-9.4,3.4-12.8-0.2l-4.6-4.8c-0.1-0.1-0.1-0.4,0-0.5l4.5-4.3
							c3.6-3.5,9.4-3.4,12.9,0.2l4.6,4.8C350.4,423,350.4,423.2,350.3,423.4z"/>
					</g>
					<g>
						<path class="st6" d="M352.2,421.9l-4.6,5.7c-3.7,4.6-10.4,5.3-15,1.6l-6.1-4.9c-0.2-0.1-0.2-0.4-0.1-0.6l4.6-5.7
							c3.7-4.6,10.5-5.3,15-1.6l6.1,4.9C352.3,421.4,352.3,421.7,352.2,421.9z"/>
					</g>
					<g>
						<path class="st7" d="M354.2,419.9l-4.6,7.3c-3.7,5.9-11.4,7.7-17.3,4l-7.8-4.9c-0.2-0.1-0.3-0.4-0.2-0.7l4.6-7.3
							c3.7-5.9,11.4-7.7,17.3-4l7.8,4.9C354.3,419.4,354.4,419.6,354.2,419.9z"/>
					</g>
					<g>
						<path class="st8" d="M356.3,417.3l-4.3,9.2c-3.4,7.4-12.3,10.6-19.7,7.2l-9.8-4.6c-0.3-0.1-0.4-0.5-0.3-0.8l4.3-9.2
							c3.5-7.4,12.3-10.6,19.7-7.2l9.8,4.6C356.3,416.6,356.5,417,356.3,417.3z"/>
					</g>
					<g>
						<path class="st9" d="M358.4,413.9l-3.7,11.4c-3,9.1-12.8,14.1-21.9,11.2l-12.1-3.9c-0.3-0.1-0.5-0.5-0.4-0.8l3.7-11.3
							c3-9.2,12.8-14.2,22-11.2l12.1,3.9C358.3,413.2,358.5,413.5,358.4,413.9z"/>
					</g>
					<g>
						<path class="st10" d="M360.3,409.7l-2.7,13.8c-2.2,11.1-12.9,18.4-24,16.2l-14.7-2.9c-0.4-0.1-0.7-0.5-0.6-0.9l2.7-13.8
							c2.2-11.1,12.9-18.4,24-16.2l14.7,2.9C360.1,408.8,360.4,409.2,360.3,409.7z"/>
					</g>
					<g>
						<path class="st11" d="M362,404.4l-1.1,16.5c-0.9,13.3-12.4,23.3-25.7,22.3l-17.6-1.2c-0.5,0-0.9-0.5-0.9-1l1.1-16.5
							c0.9-13.3,12.5-23.3,25.7-22.4l17.6,1.2C361.6,403.5,362,403.9,362,404.4z"/>
					</g>
					<g>
						<path class="st12" d="M363.1,398.1l1,19.4c0.8,15.6-11.2,29-26.8,29.8l-20.7,1.1c-0.6,0-1.1-0.4-1.1-1l-1-19.4
							c-0.8-15.6,11.2-29,26.8-29.8l20.7-1.1C362.6,397.1,363.1,397.5,363.1,398.1z"/>
					</g>
					<g>
						<path class="st13" d="M363.6,390.6l4,22.5c3.2,18.1-8.9,35.4-27.1,38.6l-24,4.2c-0.7,0.1-1.4-0.3-1.5-1l-4-22.5
							c-3.2-18.1,8.9-35.5,27.1-38.7l24-4.2C362.8,389.4,363.5,389.9,363.6,390.6z"/>
					</g>
					<g>
						<path class="st14" d="M363.1,381.7l7.9,25.7c6.3,20.7-5.3,42.7-26,49l-27.5,8.4c-0.8,0.2-1.6-0.2-1.9-1l-7.9-25.7
							c-6.3-20.7,5.3-42.7,26.1-49l27.4-8.4C362,380.5,362.8,380.9,363.1,381.7z"/>
					</g>
					<g>
						<path class="st15" d="M361.2,371.4l12.9,28.9c10.4,23.3-0.1,50.6-23.4,60.9L319.8,475c-0.9,0.4-1.9,0-2.3-0.9l-12.9-28.9
							c-10.4-23.3,0.1-50.6,23.4-61l30.8-13.7C359.7,370.1,360.8,370.5,361.2,371.4z"/>
					</g>
					<g>
						<path class="st16" d="M357.5,359.7l19.2,31.9c15.4,25.7,7.1,59.1-18.6,74.5L324,486.6c-1,0.6-2.3,0.3-2.9-0.7L302,454
							c-15.5-25.7-7.1-59.1,18.6-74.6l34-20.5C355.6,358.4,356.9,358.7,357.5,359.7z"/>
					</g>
					<g>
						<path class="st17" d="M351.5,346.5l27,34.5c21.7,27.8,16.8,67.9-11,89.7l-36.9,28.8c-1.1,0.8-2.6,0.6-3.4-0.4l-27-34.5
							c-21.7-27.8-16.8-68,11-89.7l36.8-28.8C349.1,345.2,350.6,345.4,351.5,346.5z"/>
					</g>
					<g>
						<path class="st18" d="M342.6,331.9l36.5,36.5c29.4,29.4,29.4,76.9,0,106.3l-38.9,38.9c-1.1,1.1-3,1.1-4.1,0l-36.4-36.4
							c-29.4-29.4-29.4-77,0-106.3l38.9-38.9C339.6,330.8,341.4,330.8,342.6,331.9z"/>
					</g>
				</g>
				<g>
					<g>
						<path class="st3" d="M331.5,604l2.3-3.9c1.8-3.1,5.8-4.2,9-2.4l4.2,2.4c0.1,0.1,0.2,0.2,0.1,0.3l-2.3,3.9
							c-1.8,3.1-5.8,4.2-9,2.4l-4.2-2.4C331.4,604.3,331.4,604.1,331.5,604z"/>
					</g>
					<g>
						<path class="st4" d="M329.9,603.2l3.2-4.2c2.6-3.4,7.4-4.1,10.8-1.5l4.5,3.4c0.1,0.1,0.2,0.3,0.1,0.4l-3.2,4.2
							c-2.6,3.4-7.4,4.1-10.8,1.5l-4.5-3.4C329.9,603.5,329.8,603.3,329.9,603.2z"/>
					</g>
					<g>
						<path class="st5" d="M328.2,602l4.3-4.5c3.5-3.6,9.2-3.7,12.8-0.2l4.8,4.6c0.1,0.1,0.1,0.4,0,0.5l-4.3,4.5
							c-3.5,3.6-9.2,3.7-12.9,0.2l-4.8-4.6C328.1,602.4,328.1,602.2,328.2,602z"/>
					</g>
					<g>
						<path class="st6" d="M326.4,600.4l5.7-4.6c4.6-3.7,11.3-3,15,1.6l4.9,6.1c0.1,0.2,0.1,0.4-0.1,0.6l-5.7,4.6
							c-4.6,3.7-11.3,3-15-1.6l-4.9-6.1C326.2,600.8,326.2,600.6,326.4,600.4z"/>
					</g>
					<g>
						<path class="st7" d="M324.5,598.3l7.3-4.6c5.9-3.7,13.6-1.9,17.3,4l4.9,7.8c0.1,0.2,0.1,0.5-0.2,0.7l-7.3,4.6
							c-5.9,3.7-13.7,1.9-17.3-4l-4.9-7.8C324.2,598.7,324.3,598.4,324.5,598.3z"/>
					</g>
					<g>
						<path class="st8" d="M322.6,595.5l9.2-4.3c7.4-3.4,16.2-0.2,19.7,7.2l4.6,9.8c0.1,0.3,0,0.6-0.3,0.8l-9.2,4.3
							c-7.4,3.5-16.2,0.2-19.7-7.2l-4.6-9.8C322.2,596,322.3,595.6,322.6,595.5z"/>
					</g>
					<g>
						<path class="st9" d="M320.8,592l11.4-3.7c9.1-3,19,2,21.9,11.2l3.9,12.1c0.1,0.3-0.1,0.7-0.4,0.8l-11.3,3.7
							c-9.2,3-19-2-22-11.2l-3.9-12.1C320.3,592.5,320.5,592.1,320.8,592z"/>
					</g>
					<g>
						<path class="st10" d="M319.2,587.7L333,585c11.1-2.2,21.8,5.1,24,16.2l2.9,14.7c0.1,0.4-0.2,0.8-0.6,0.9l-13.8,2.7
							c-11.1,2.2-21.9-5.1-24-16.2l-2.9-14.7C318.5,588.1,318.8,587.7,319.2,587.7z"/>
					</g>
					<g>
						<path class="st11" d="M317.9,582.3l16.5-1.1c13.3-0.9,24.8,9.1,25.7,22.3l1.2,17.6c0,0.5-0.3,1-0.9,1l-16.5,1.1
							c-13.3,0.9-24.8-9.1-25.7-22.4l-1.2-17.6C317,582.8,317.4,582.4,317.9,582.3z"/>
					</g>
					<g>
						<path class="st12" d="M317.2,576l19.4,1c15.6,0.8,27.6,14.2,26.8,29.8l-1.1,20.7c0,0.6-0.5,1.1-1.1,1l-19.4-1
							c-15.6-0.8-27.7-14.2-26.8-29.8l1.1-20.7C316.1,576.4,316.6,575.9,317.2,576z"/>
					</g>
					<g>
						<path class="st13" d="M317.3,568.4l22.5,4c18.1,3.2,30.2,20.5,27.1,38.6l-4.2,24c-0.1,0.7-0.8,1.2-1.5,1l-22.5-4
							c-18.1-3.2-30.3-20.5-27.1-38.7l4.2-24C315.9,568.7,316.6,568.3,317.3,568.4z"/>
					</g>
					<g>
						<path class="st14" d="M318.5,559.6l25.7,7.9c20.7,6.3,32.4,28.3,26,49l-8.4,27.5c-0.2,0.8-1.1,1.2-1.9,1l-25.7-7.9
							c-20.7-6.3-32.4-28.3-26.1-49l8.4-27.4C316.8,559.8,317.7,559.3,318.5,559.6z"/>
					</g>
					<g>
						<path class="st15" d="M321.1,549.4l28.9,12.9c23.3,10.4,33.8,37.6,23.4,60.9l-13.7,30.9c-0.4,0.9-1.4,1.3-2.3,0.9l-28.9-12.9
							c-23.3-10.4-33.8-37.7-23.4-61l13.7-30.8C319.1,549.4,320.2,549,321.1,549.4z"/>
					</g>
					<g>
						<path class="st16" d="M325.6,538l31.9,19.2c25.7,15.4,34,48.8,18.6,74.5l-20.5,34.1c-0.6,1-1.9,1.3-2.9,0.7l-31.9-19.2
							c-25.7-15.5-34-48.8-18.6-74.6l20.5-34C323.3,537.7,324.6,537.4,325.6,538z"/>
					</g>
					<g>
						<path class="st17" d="M332.5,525.3l34.5,27c27.8,21.7,32.7,61.9,11,89.7l-28.8,36.9c-0.8,1.1-2.4,1.3-3.4,0.4l-34.5-27
							c-27.8-21.7-32.8-61.9-11-89.7l28.8-36.8C329.9,524.6,331.5,524.4,332.5,525.3z"/>
					</g>
					<g>
						<path class="st18" d="M342.5,511.4l36.5,36.5c29.4,29.4,29.4,76.9,0,106.3L340,693.1c-1.1,1.1-3,1.1-4.1,0l-36.4-36.4
							c-29.4-29.4-29.4-77,0-106.3l38.9-38.9C339.5,510.3,341.3,510.3,342.5,511.4z"/>
					</g>
				</g>
				<g>
					<g>
						<path class="st3" d="M330.1,244.7l2.3-3.9c1.8-3.1,5.8-4.2,9-2.4l4.2,2.4c0.1,0.1,0.2,0.2,0.1,0.3l-2.3,3.9
							c-1.8,3.1-5.8,4.2-9,2.4l-4.2-2.4C330.1,244.9,330.1,244.8,330.1,244.7z"/>
					</g>
					<g>
						<path class="st4" d="M328.6,243.9l3.2-4.2c2.6-3.4,7.4-4.1,10.8-1.5l4.5,3.4c0.1,0.1,0.2,0.3,0.1,0.4l-3.2,4.2
							c-2.6,3.4-7.4,4.1-10.8,1.5l-4.5-3.4C328.5,244.2,328.5,244,328.6,243.9z"/>
					</g>
					<g>
						<path class="st5" d="M326.9,242.7l4.3-4.5c3.5-3.6,9.2-3.7,12.8-0.2l4.8,4.6c0.1,0.1,0.1,0.4,0,0.5l-4.3,4.5
							c-3.5,3.6-9.2,3.7-12.9,0.2l-4.8-4.6C326.8,243.1,326.8,242.8,326.9,242.7z"/>
					</g>
					<g>
						<path class="st6" d="M325.1,241.1l5.7-4.6c4.6-3.7,11.3-3,15,1.6l4.9,6.1c0.1,0.2,0.1,0.4-0.1,0.6l-5.7,4.6
							c-4.6,3.7-11.3,3-15-1.6l-4.9-6.1C324.9,241.5,324.9,241.2,325.1,241.1z"/>
					</g>
					<g>
						<path class="st7" d="M323.2,238.9l7.3-4.6c5.9-3.7,13.6-1.9,17.3,4l4.9,7.8c0.1,0.2,0.1,0.5-0.2,0.7l-7.3,4.6
							c-5.9,3.7-13.7,1.9-17.3-4l-4.9-7.8C322.9,239.4,323,239.1,323.2,238.9z"/>
					</g>
					<g>
						<path class="st8" d="M321.3,236.2l9.2-4.3c7.4-3.4,16.2-0.2,19.7,7.2l4.6,9.8c0.1,0.3,0,0.6-0.3,0.8l-9.2,4.3
							c-7.4,3.5-16.2,0.2-19.7-7.2l-4.6-9.8C320.9,236.6,321,236.3,321.3,236.2z"/>
					</g>
					<g>
						<path class="st9" d="M319.5,232.7l11.4-3.7c9.1-3,19,2,21.9,11.2l3.9,12.1c0.1,0.3-0.1,0.7-0.4,0.8l-11.3,3.7
							c-9.2,3-19-2-22-11.2l-3.9-12.1C318.9,233.2,319.1,232.8,319.5,232.7z"/>
					</g>
					<g>
						<path class="st10" d="M317.9,228.3l13.8-2.7c11.1-2.2,21.8,5.1,24,16.2l2.9,14.7c0.1,0.4-0.2,0.8-0.6,0.9l-13.8,2.7
							c-11.1,2.2-21.9-5.1-24-16.2l-2.9-14.7C317.1,228.8,317.4,228.4,317.9,228.3z"/>
					</g>
					<g>
						<path class="st11" d="M316.6,223l16.5-1.1c13.3-0.9,24.8,9.1,25.7,22.3l1.2,17.6c0,0.5-0.3,1-0.9,1l-16.5,1.1
							c-13.3,0.9-24.8-9.1-25.7-22.4l-1.2-17.6C315.7,223.5,316.1,223,316.6,223z"/>
					</g>
					<g>
						<path class="st12" d="M315.9,216.6l19.4,1c15.6,0.8,27.6,14.2,26.8,29.8l-1.1,20.7c0,0.6-0.5,1.1-1.1,1l-19.4-1
							c-15.6-0.8-27.7-14.2-26.8-29.8l1.1-20.7C314.8,217,315.3,216.6,315.9,216.6z"/>
					</g>
					<g>
						<path class="st13" d="M315.9,209.1l22.5,4c18.1,3.2,30.2,20.5,27.1,38.6l-4.2,24c-0.1,0.7-0.8,1.2-1.5,1l-22.5-4
							c-18.1-3.2-30.3-20.5-27.1-38.7l4.2-24C314.6,209.4,315.3,208.9,315.9,209.1z"/>
					</g>
					<g>
						<path class="st14" d="M317.1,200.2l25.7,7.9c20.7,6.3,32.4,28.3,26,49l-8.4,27.5c-0.2,0.8-1.1,1.2-1.9,1l-25.7-7.9
							c-20.7-6.3-32.4-28.3-26.1-49l8.4-27.4C315.5,200.4,316.3,200,317.1,200.2z"/>
					</g>
					<g>
						<path class="st15" d="M319.8,190.1l28.9,12.9c23.3,10.4,33.8,37.6,23.4,60.9l-13.7,30.9c-0.4,0.9-1.4,1.3-2.3,0.9l-28.9-12.9
							c-23.3-10.4-33.8-37.7-23.4-61l13.7-30.8C317.8,190.1,318.9,189.7,319.8,190.1z"/>
					</g>
					<g>
						<path class="st16" d="M324.3,178.6l31.9,19.2c25.7,15.4,34,48.8,18.6,74.5l-20.5,34.1c-0.6,1-1.9,1.3-2.9,0.7L319.6,288
							c-25.7-15.5-34-48.8-18.6-74.6l20.5-34C322,178.4,323.3,178.1,324.3,178.6z"/>
					</g>
					<g>
						<path class="st17" d="M331.2,165.9l34.5,27c27.8,21.7,32.7,61.9,11,89.7L348,319.4c-0.8,1.1-2.4,1.3-3.4,0.4l-34.5-27
							c-27.8-21.7-32.8-61.9-11-89.7l28.8-36.8C328.6,165.3,330.1,165.1,331.2,165.9z"/>
					</g>
					<g>
						<path class="st18" d="M341.1,152.1l36.5,36.5c29.4,29.4,29.4,76.9,0,106.3l-38.9,38.9c-1.1,1.1-3,1.1-4.1,0l-36.4-36.4
							c-29.4-29.4-29.4-77,0-106.3l38.9-38.9C338.2,150.9,340,150.9,341.1,152.1z"/>
					</g>
				</g>
				<g>
					<g>
						<path class="st3" d="M347.8,65.3l-3.9,2.3c-3.1,1.8-7.2,0.7-9-2.4l-2.4-4.2c-0.1-0.1,0-0.3,0.1-0.3l3.9-2.3
							c3.1-1.8,7.2-0.7,9,2.4l2.4,4.2C348,65.1,347.9,65.2,347.8,65.3z"/>
					</g>
					<g>
						<path class="st4" d="M349.4,64.6l-4.2,3.2c-3.4,2.6-8.2,1.9-10.8-1.5l-3.4-4.5c-0.1-0.1-0.1-0.3,0.1-0.4l4.2-3.2
							c3.4-2.6,8.3-1.9,10.8,1.5l3.4,4.5C349.6,64.3,349.6,64.5,349.4,64.6z"/>
					</g>
					<g>
						<path class="st5" d="M351.2,63.6l-4.5,4.3c-3.6,3.5-9.4,3.4-12.8-0.2l-4.6-4.8c-0.1-0.1-0.1-0.4,0-0.5l4.5-4.3
							c3.6-3.5,9.4-3.4,12.9,0.2l4.6,4.8C351.4,63.2,351.3,63.4,351.2,63.6z"/>
					</g>
					<g>
						<path class="st6" d="M353.1,62.1l-4.6,5.7c-3.7,4.6-10.4,5.3-15,1.6l-6.1-4.9c-0.2-0.1-0.2-0.4-0.1-0.6l4.6-5.7
							c3.7-4.6,10.5-5.3,15-1.6l6.1,4.9C353.2,61.6,353.3,61.9,353.1,62.1z"/>
					</g>
					<g>
						<path class="st7" d="M355.2,60.1l-4.6,7.3c-3.7,5.9-11.4,7.7-17.3,4l-7.8-4.9c-0.2-0.1-0.3-0.4-0.2-0.7l4.6-7.3
							c3.7-5.9,11.4-7.7,17.3-4l7.8,4.9C355.2,59.6,355.3,59.9,355.2,60.1z"/>
					</g>
					<g>
						<path class="st8" d="M357.3,57.5l-4.3,9.2c-3.4,7.4-12.3,10.6-19.7,7.2l-9.8-4.6c-0.3-0.1-0.4-0.5-0.3-0.8l4.3-9.2
							c3.5-7.4,12.3-10.6,19.7-7.2l9.8,4.6C357.3,56.8,357.4,57.2,357.3,57.5z"/>
					</g>
					<g>
						<path class="st9" d="M359.3,54.1l-3.7,11.4c-3,9.1-12.8,14.1-21.9,11.2l-12.1-3.9c-0.3-0.1-0.5-0.5-0.4-0.8l3.7-11.3
							c3-9.2,12.8-14.2,22-11.2l12.1,3.9C359.2,53.4,359.4,53.7,359.3,54.1z"/>
					</g>
					<g>
						<path class="st10" d="M361.2,49.9l-2.7,13.8c-2.2,11.1-12.9,18.4-24,16.2L319.8,77c-0.4-0.1-0.7-0.5-0.6-0.9l2.7-13.8
							c2.2-11.1,12.9-18.4,24-16.2l14.7,2.9C361,49,361.3,49.4,361.2,49.9z"/>
					</g>
					<g>
						<path class="st11" d="M362.9,44.7l-1.1,16.5c-0.9,13.3-12.4,23.3-25.7,22.3l-17.6-1.2c-0.5,0-0.9-0.5-0.9-1l1.1-16.5
							c0.9-13.3,12.5-23.3,25.7-22.4l17.6,1.2C362.5,43.7,362.9,44.1,362.9,44.7z"/>
					</g>
					<g>
						<path class="st12" d="M364.1,38.3l1,19.4c0.8,15.6-11.2,29-26.8,29.8l-20.7,1.1c-0.6,0-1.1-0.4-1.1-1l-1-19.4
							c-0.8-15.6,11.2-29,26.8-29.8l20.7-1.1C363.5,37.3,364,37.7,364.1,38.3z"/>
					</g>
					<g>
						<path class="st13" d="M364.5,30.8l4,22.5c3.2,18.1-8.9,35.4-27.1,38.6l-24,4.2c-0.7,0.1-1.4-0.3-1.5-1l-4-22.5
							c-3.2-18.1,8.9-35.5,27.1-38.7l24-4.2C363.7,29.6,364.4,30.1,364.5,30.8z"/>
					</g>
					<g>
						<path class="st14" d="M364,21.9l7.9,25.7c6.3,20.7-5.3,42.7-26,49l-27.5,8.4c-0.8,0.2-1.6-0.2-1.9-1l-7.9-25.7
							c-6.3-20.7,5.3-42.7,26.1-49l27.4-8.4C362.9,20.7,363.7,21.1,364,21.9z"/>
					</g>
					<g>
						<path class="st15" d="M362.1,11.6L375,40.5c10.4,23.3-0.1,50.6-23.4,60.9l-30.9,13.7c-0.9,0.4-1.9,0-2.3-0.9l-12.9-28.9
							c-10.4-23.3,0.1-50.6,23.4-61l30.8-13.7C360.6,10.3,361.7,10.7,362.1,11.6z"/>
					</g>
					<g>
						<path class="st16" d="M358.4-0.1l19.2,31.9c15.4,25.7,7.1,59.1-18.6,74.5l-34.1,20.5c-1,0.6-2.3,0.3-2.9-0.7l-19.2-31.9
							c-15.5-25.7-7.1-59.1,18.6-74.6l34-20.5C356.5-1.4,357.8-1.1,358.4-0.1z"/>
					</g>
					<g>
						<path class="st17" d="M352.4-13.3l27,34.5c21.7,27.8,16.8,67.9-11,89.7l-36.9,28.8c-1.1,0.8-2.6,0.6-3.4-0.4l-27-34.5
							c-21.7-27.8-16.8-68,11-89.7L349-13.7C350-14.6,351.5-14.4,352.4-13.3z"/>
					</g>
					<g>
						<path class="st18" d="M343.5-27.9L380,8.6c29.4,29.4,29.4,76.9,0,106.3L341,153.8c-1.1,1.1-3,1.1-4.1,0l-36.4-36.4
							c-29.4-29.4-29.4-77,0-106.3l38.9-38.9C340.5-29,342.4-29,343.5-27.9z"/>
					</g>
				</g>
				<g>
					<g>
						<path class="st3" d="M334.8-113.7l2.3-3.9c1.8-3.1,5.8-4.2,9-2.4l4.2,2.4c0.1,0.1,0.2,0.2,0.1,0.3l-2.3,3.9
							c-1.8,3.1-5.8,4.2-9,2.4l-4.2-2.4C334.8-113.4,334.8-113.5,334.8-113.7z"/>
					</g>
					<g>
						<path class="st4" d="M333.3-114.5l3.2-4.2c2.6-3.4,7.4-4.1,10.8-1.5l4.5,3.4c0.1,0.1,0.2,0.3,0.1,0.4l-3.2,4.2
							c-2.6,3.4-7.4,4.1-10.8,1.5l-4.5-3.4C333.2-114.1,333.2-114.3,333.3-114.5z"/>
					</g>
					<g>
						<path class="st5" d="M331.6-115.6l4.3-4.5c3.5-3.6,9.2-3.7,12.8-0.2l4.8,4.6c0.1,0.1,0.1,0.4,0,0.5l-4.3,4.5
							c-3.5,3.6-9.2,3.7-12.9,0.2l-4.8-4.6C331.5-115.3,331.5-115.5,331.6-115.6z"/>
					</g>
					<g>
						<path class="st6" d="M329.8-117.2l5.7-4.6c4.6-3.7,11.3-3,15,1.6l4.9,6.1c0.1,0.2,0.1,0.4-0.1,0.6l-5.7,4.6
							c-4.6,3.7-11.3,3-15-1.6l-4.9-6.1C329.6-116.8,329.6-117.1,329.8-117.2z"/>
					</g>
					<g>
						<path class="st7" d="M327.9-119.4l7.3-4.6c5.9-3.7,13.6-1.9,17.3,4l4.9,7.8c0.1,0.2,0.1,0.5-0.2,0.7l-7.3,4.6
							c-5.9,3.7-13.7,1.9-17.3-4l-4.9-7.8C327.6-118.9,327.7-119.2,327.9-119.4z"/>
					</g>
					<g>
						<path class="st8" d="M326-122.1l9.2-4.3c7.4-3.4,16.2-0.2,19.7,7.2l4.6,9.8c0.1,0.3,0,0.6-0.3,0.8l-9.2,4.3
							c-7.4,3.5-16.2,0.2-19.7-7.2l-4.6-9.8C325.6-121.7,325.7-122,326-122.1z"/>
					</g>
					<g>
						<path class="st9" d="M324.2-125.7l11.4-3.7c9.1-3,19,2,21.9,11.2l3.9,12.1c0.1,0.3-0.1,0.7-0.4,0.8l-11.3,3.7
							c-9.2,3-19-2-22-11.2l-3.9-12.1C323.6-125.2,323.8-125.5,324.2-125.7z"/>
					</g>
					<g>
						<path class="st10" d="M322.5-130l13.8-2.7c11.1-2.2,21.8,5.1,24,16.2l2.9,14.7c0.1,0.4-0.2,0.8-0.6,0.9l-13.8,2.7
							c-11.1,2.2-21.9-5.1-24-16.2l-2.9-14.7C321.8-129.5,322.1-129.9,322.5-130z"/>
					</g>
					<g>
						<path class="st11" d="M321.3-135.3l16.5-1.1c13.3-0.9,24.8,9.1,25.7,22.3l1.2,17.6c0,0.5-0.3,1-0.9,1l-16.5,1.1
							c-13.3,0.9-24.8-9.1-25.7-22.4l-1.2-17.6C320.4-134.8,320.8-135.3,321.3-135.3z"/>
					</g>
					<g>
						<path class="st12" d="M320.6-141.7l19.4,1c15.6,0.8,27.6,14.2,26.8,29.8l-1.1,20.7c0,0.6-0.5,1.1-1.1,1l-19.4-1
							c-15.6-0.8-27.7-14.2-26.8-29.8l1.1-20.7C319.4-141.3,320-141.7,320.6-141.7z"/>
					</g>
					<g>
						<path class="st13" d="M320.6-149.3l22.5,4c18.1,3.2,30.2,20.5,27.1,38.6l-4.2,24c-0.1,0.7-0.8,1.2-1.5,1l-22.5-4
							c-18.1-3.2-30.3-20.5-27.1-38.7l4.2-24C319.3-148.9,319.9-149.4,320.6-149.3z"/>
					</g>
					<g>
						<path class="st14" d="M321.8-158.1l25.7,7.9c20.7,6.3,32.4,28.3,26,49l-8.4,27.5c-0.2,0.8-1.1,1.2-1.9,1l-25.7-7.9
							c-20.7-6.3-32.4-28.3-26.1-49l8.4-27.4C320.2-157.9,321-158.3,321.8-158.1z"/>
					</g>
					<g>
						<path class="st15" d="M324.4-168.2l28.9,12.9c23.3,10.4,33.8,37.6,23.4,60.9L363-63.5c-0.4,0.9-1.4,1.3-2.3,0.9l-28.9-12.9
							c-23.3-10.4-33.8-37.7-23.4-61l13.7-30.8C322.5-168.2,323.6-168.6,324.4-168.2z"/>
					</g>
					<g>
						<path class="st16" d="M329-179.7l31.9,19.2c25.7,15.4,34,48.8,18.6,74.5L359-51.9c-0.6,1-1.9,1.3-2.9,0.7l-31.9-19.2
							c-25.7-15.5-34-48.8-18.6-74.6l20.5-34C326.7-180,328-180.3,329-179.7z"/>
					</g>
					<g>
						<path class="st17" d="M335.9-192.4l34.5,27c27.8,21.7,32.7,61.9,11,89.7l-28.8,36.9c-0.8,1.1-2.4,1.3-3.4,0.4l-34.5-27
							c-27.8-21.7-32.8-61.9-11-89.7l28.8-36.8C333.3-193,334.8-193.2,335.9-192.4z"/>
					</g>
					<g>
						<path class="st18" d="M345.8-206.3l36.5,36.5c29.4,29.4,29.4,76.9,0,106.3l-38.9,38.9c-1.1,1.1-3,1.1-4.1,0L302.9-61
							c-29.4-29.4-29.4-77,0-106.3l38.9-38.9C342.9-207.4,344.7-207.4,345.8-206.3z"/>
					</g>
				</g>
			</g>
			<g>
				<g>
					<g>
						<path class="st3" d="M476.8,502.6l-3.9,2.3c-3.1,1.8-7.2,0.7-9-2.4l-2.4-4.2c-0.1-0.1,0-0.3,0.1-0.3l3.9-2.3
							c3.1-1.8,7.2-0.7,9,2.4l2.4,4.2C476.9,502.4,476.9,502.6,476.8,502.6z"/>
					</g>
					<g>
						<path class="st4" d="M478.4,501.9l-4.2,3.2c-3.4,2.6-8.2,1.9-10.8-1.5l-3.4-4.5c-0.1-0.1-0.1-0.3,0.1-0.4l4.2-3.2
							c3.4-2.6,8.3-1.9,10.8,1.5l3.4,4.5C478.5,501.7,478.5,501.8,478.4,501.9z"/>
					</g>
					<g>
						<path class="st5" d="M480.1,500.9l-4.5,4.3c-3.6,3.5-9.4,3.4-12.8-0.2l-4.6-4.8c-0.1-0.1-0.1-0.4,0-0.5l4.5-4.3
							c3.6-3.5,9.4-3.4,12.9,0.2l4.6,4.8C480.3,500.5,480.3,500.8,480.1,500.9z"/>
					</g>
					<g>
						<path class="st6" d="M482.1,499.4l-4.6,5.7c-3.7,4.6-10.4,5.3-15,1.6l-6.1-4.9c-0.2-0.1-0.2-0.4-0.1-0.6l4.6-5.7
							c3.7-4.6,10.5-5.3,15-1.6l6.1,4.9C482.2,499,482.2,499.2,482.1,499.4z"/>
					</g>
					<g>
						<path class="st7" d="M484.1,497.4l-4.6,7.3c-3.7,5.9-11.4,7.7-17.3,4l-7.8-4.9c-0.2-0.1-0.3-0.4-0.2-0.7l4.6-7.3
							c3.7-5.9,11.4-7.7,17.3-4l7.8,4.9C484.2,496.9,484.2,497.2,484.1,497.4z"/>
					</g>
					<g>
						<path class="st8" d="M486.2,494.8l-4.3,9.2c-3.4,7.4-12.3,10.6-19.7,7.2l-9.8-4.6c-0.3-0.1-0.4-0.5-0.3-0.8l4.3-9.2
							c3.5-7.4,12.3-10.6,19.7-7.2l9.8,4.6C486.2,494.2,486.3,494.5,486.2,494.8z"/>
					</g>
					<g>
						<path class="st9" d="M488.2,491.4l-3.7,11.4c-3,9.1-12.8,14.1-21.9,11.2l-12.1-3.9c-0.3-0.1-0.5-0.5-0.4-0.8l3.7-11.3
							c3-9.2,12.8-14.2,22-11.2l12.1,3.9C488.2,490.7,488.4,491.1,488.2,491.4z"/>
					</g>
					<g>
						<path class="st10" d="M490.2,487.2l-2.7,13.8c-2.2,11.1-12.9,18.4-24,16.2l-14.7-2.9c-0.4-0.1-0.7-0.5-0.6-0.9l2.7-13.8
							c2.2-11.1,12.9-18.4,24-16.2l14.7,2.9C490,486.4,490.3,486.8,490.2,487.2z"/>
					</g>
					<g>
						<path class="st11" d="M491.8,482l-1.1,16.5c-0.9,13.3-12.4,23.3-25.7,22.3l-17.6-1.2c-0.5,0-0.9-0.5-0.9-1l1.1-16.5
							c0.9-13.3,12.5-23.3,25.7-22.4L491,481C491.5,481,491.9,481.5,491.8,482z"/>
					</g>
					<g>
						<path class="st12" d="M493,475.7l1,19.4c0.8,15.6-11.2,29-26.8,29.8l-20.7,1.1c-0.6,0-1.1-0.4-1.1-1l-1-19.4
							c-0.8-15.6,11.2-29,26.8-29.8l20.7-1.1C492.5,474.6,493,475.1,493,475.7z"/>
					</g>
					<g>
						<path class="st13" d="M493.5,468.1l4,22.5c3.2,18.1-8.9,35.4-27.1,38.6l-24,4.2c-0.7,0.1-1.4-0.3-1.5-1l-4-22.5
							c-3.2-18.1,8.9-35.5,27.1-38.7l24-4.2C492.7,467,493.3,467.4,493.5,468.1z"/>
					</g>
					<g>
						<path class="st14" d="M492.9,459.2l7.9,25.7c6.3,20.7-5.3,42.7-26,49l-27.5,8.4c-0.8,0.2-1.6-0.2-1.9-1l-7.9-25.7
							c-6.3-20.7,5.3-42.7,26.1-49l27.4-8.4C491.8,458,492.7,458.4,492.9,459.2z"/>
					</g>
					<g>
						<path class="st15" d="M491,448.9l12.9,28.9c10.4,23.3-0.1,50.6-23.4,60.9l-30.9,13.7c-0.9,0.4-1.9,0-2.3-0.9l-12.9-28.9
							c-10.4-23.3,0.1-50.6,23.4-61l30.8-13.7C489.6,447.7,490.6,448,491,448.9z"/>
					</g>
					<g>
						<path class="st16" d="M487.3,437.2l19.2,31.9c15.4,25.7,7.1,59.1-18.6,74.5l-34.1,20.5c-1,0.6-2.3,0.3-2.9-0.7l-19.2-31.9
							c-15.5-25.7-7.1-59.1,18.6-74.6l34-20.5C485.4,435.9,486.7,436.2,487.3,437.2z"/>
					</g>
					<g>
						<path class="st17" d="M481.3,424l27,34.5c21.7,27.8,16.8,67.9-11,89.7L460.4,577c-1.1,0.8-2.6,0.6-3.4-0.4l-27-34.5
							c-21.7-27.8-16.8-68,11-89.7l36.8-28.8C478.9,422.8,480.5,422.9,481.3,424z"/>
					</g>
					<g>
						<path class="st18" d="M472.4,409.5l36.5,36.5c29.4,29.4,29.4,76.9,0,106.3L470,591.1c-1.1,1.1-3,1.1-4.1,0l-36.4-36.4
							c-29.4-29.4-29.4-77,0-106.3l38.9-38.9C469.5,408.3,471.3,408.3,472.4,409.5z"/>
					</g>
				</g>
				<g>
					<g>
						<path class="st3" d="M461.3,681.5l2.3-3.9c1.8-3.1,5.8-4.2,9-2.4l4.2,2.4c0.1,0.1,0.2,0.2,0.1,0.3l-2.3,3.9
							c-1.8,3.1-5.8,4.2-9,2.4l-4.2-2.4C461.3,681.8,461.3,681.7,461.3,681.5z"/>
					</g>
					<g>
						<path class="st4" d="M459.8,680.7l3.2-4.2c2.6-3.4,7.4-4.1,10.8-1.5l4.5,3.4c0.1,0.1,0.2,0.3,0.1,0.4l-3.2,4.2
							c-2.6,3.4-7.4,4.1-10.8,1.5l-4.5-3.4C459.7,681.1,459.7,680.9,459.8,680.7z"/>
					</g>
					<g>
						<path class="st5" d="M458.1,679.6l4.3-4.5c3.5-3.6,9.2-3.7,12.8-0.2l4.8,4.6c0.1,0.1,0.1,0.4,0,0.5l-4.3,4.5
							c-3.5,3.6-9.2,3.7-12.9,0.2l-4.8-4.6C458,679.9,458,679.7,458.1,679.6z"/>
					</g>
					<g>
						<path class="st6" d="M456.3,678l5.7-4.6c4.6-3.7,11.3-3,15,1.6l4.9,6.1c0.1,0.2,0.1,0.4-0.1,0.6l-5.7,4.6
							c-4.6,3.7-11.3,3-15-1.6l-4.9-6.1C456.1,678.4,456.1,678.1,456.3,678z"/>
					</g>
					<g>
						<path class="st7" d="M454.4,675.8l7.3-4.6c5.9-3.7,13.6-1.9,17.3,4l4.9,7.8c0.1,0.2,0.1,0.5-0.2,0.7l-7.3,4.6
							c-5.9,3.7-13.7,1.9-17.3-4l-4.9-7.8C454.1,676.3,454.2,676,454.4,675.8z"/>
					</g>
					<g>
						<path class="st8" d="M452.5,673.1l9.2-4.3c7.4-3.4,16.2-0.2,19.7,7.2l4.6,9.8c0.1,0.3,0,0.6-0.3,0.8l-9.2,4.3
							c-7.4,3.5-16.2,0.2-19.7-7.2l-4.6-9.8C452.1,673.5,452.2,673.2,452.5,673.1z"/>
					</g>
					<g>
						<path class="st9" d="M450.7,669.5l11.4-3.7c9.1-3,19,2,21.9,11.2l3.9,12.1c0.1,0.3-0.1,0.7-0.4,0.8l-11.3,3.7
							c-9.2,3-19-2-22-11.2l-3.9-12.1C450.1,670,450.3,669.7,450.7,669.5z"/>
					</g>
					<g>
						<path class="st10" d="M449,665.2l13.8-2.7c11.1-2.2,21.8,5.1,24,16.2l2.9,14.7c0.1,0.4-0.2,0.8-0.6,0.9l-13.8,2.7
							c-11.1,2.2-21.9-5.1-24-16.2l-2.9-14.7C448.3,665.7,448.6,665.3,449,665.2z"/>
					</g>
					<g>
						<path class="st11" d="M447.8,659.9l16.5-1.1c13.3-0.9,24.8,9.1,25.7,22.3l1.2,17.6c0,0.5-0.3,1-0.9,1l-16.5,1.1
							c-13.3,0.9-24.8-9.1-25.7-22.4l-1.2-17.6C446.9,660.4,447.3,659.9,447.8,659.9z"/>
					</g>
					<g>
						<path class="st12" d="M447.1,653.5l19.4,1c15.6,0.8,27.6,14.2,26.8,29.8l-1.1,20.7c0,0.6-0.5,1.1-1.1,1l-19.4-1
							c-15.6-0.8-27.7-14.2-26.8-29.8l1.1-20.7C445.9,653.9,446.5,653.5,447.1,653.5z"/>
					</g>
					<g>
						<path class="st13" d="M447.1,645.9l22.5,4c18.1,3.2,30.2,20.5,27.1,38.6l-4.2,24c-0.1,0.7-0.8,1.2-1.5,1l-22.5-4
							c-18.1-3.2-30.3-20.5-27.1-38.7l4.2-24C445.8,646.3,446.4,645.8,447.1,645.9z"/>
					</g>
					<g>
						<path class="st14" d="M448.3,637.1l25.7,7.9c20.7,6.3,32.4,28.3,26,49l-8.4,27.5c-0.2,0.8-1.1,1.2-1.9,1l-25.7-7.9
							c-20.7-6.3-32.4-28.3-26.1-49l8.4-27.4C446.7,637.3,447.5,636.9,448.3,637.1z"/>
					</g>
					<g>
						<path class="st15" d="M450.9,627l28.9,12.9c23.3,10.4,33.8,37.6,23.4,60.9l-13.7,30.9c-0.4,0.9-1.4,1.3-2.3,0.9l-28.9-12.9
							c-23.3-10.4-33.8-37.7-23.4-61l13.7-30.8C449,627,450.1,626.6,450.9,627z"/>
					</g>
					<g>
						<path class="st16" d="M455.5,615.5l31.9,19.2c25.7,15.4,34,48.8,18.6,74.5l-20.5,34.1c-0.6,1-1.9,1.3-2.9,0.7l-31.9-19.2
							c-25.7-15.5-34-48.8-18.6-74.6l20.5-34C453.2,615.3,454.5,614.9,455.5,615.5z"/>
					</g>
					<g>
						<path class="st17" d="M462.4,602.8l34.5,27c27.8,21.7,32.7,61.9,11,89.7l-28.8,36.9c-0.8,1.1-2.4,1.3-3.4,0.4l-34.5-27
							c-27.8-21.7-32.8-61.9-11-89.7l28.8-36.8C459.8,602.2,461.3,602,462.4,602.8z"/>
					</g>
					<g>
						<path class="st18" d="M472.3,588.9l36.5,36.5c29.4,29.4,29.4,76.9,0,106.3l-38.9,38.9c-1.1,1.1-3,1.1-4.1,0l-36.4-36.4
							c-29.4-29.4-29.4-77,0-106.3l38.9-38.9C469.4,587.8,471.2,587.8,472.3,588.9z"/>
					</g>
				</g>
				<g>
					<g>
						<path class="st3" d="M460,322.2l2.3-3.9c1.8-3.1,5.8-4.2,9-2.4l4.2,2.4c0.1,0.1,0.2,0.2,0.1,0.3l-2.3,3.9
							c-1.8,3.1-5.8,4.2-9,2.4l-4.2-2.4C460,322.5,459.9,322.3,460,322.2z"/>
					</g>
					<g>
						<path class="st4" d="M458.4,321.4l3.2-4.2c2.6-3.4,7.4-4.1,10.8-1.5l4.5,3.4c0.1,0.1,0.2,0.3,0.1,0.4l-3.2,4.2
							c-2.6,3.4-7.4,4.1-10.8,1.5l-4.5-3.4C458.4,321.7,458.3,321.5,458.4,321.4z"/>
					</g>
					<g>
						<path class="st5" d="M456.7,320.2l4.3-4.5c3.5-3.6,9.2-3.7,12.8-0.2l4.8,4.6c0.1,0.1,0.1,0.4,0,0.5l-4.3,4.5
							c-3.5,3.6-9.2,3.7-12.9,0.2l-4.8-4.6C456.6,320.6,456.6,320.4,456.7,320.2z"/>
					</g>
					<g>
						<path class="st6" d="M454.9,318.6l5.7-4.6c4.6-3.7,11.3-3,15,1.6l4.9,6.1c0.1,0.2,0.1,0.4-0.1,0.6l-5.7,4.6
							c-4.6,3.7-11.3,3-15-1.6l-4.9-6.1C454.7,319,454.8,318.8,454.9,318.6z"/>
					</g>
					<g>
						<path class="st7" d="M453,316.5l7.3-4.6c5.9-3.7,13.6-1.9,17.3,4l4.9,7.8c0.1,0.2,0.1,0.5-0.2,0.7l-7.3,4.6
							c-5.9,3.7-13.7,1.9-17.3-4l-4.9-7.8C452.8,316.9,452.8,316.6,453,316.5z"/>
					</g>
					<g>
						<path class="st8" d="M451.1,313.7l9.2-4.3c7.4-3.4,16.2-0.2,19.7,7.2l4.6,9.8c0.1,0.3,0,0.6-0.3,0.8l-9.2,4.3
							c-7.4,3.5-16.2,0.2-19.7-7.2l-4.6-9.8C450.7,314.2,450.9,313.8,451.1,313.7z"/>
					</g>
					<g>
						<path class="st9" d="M449.3,310.2l11.4-3.7c9.1-3,19,2,21.9,11.2l3.9,12.1c0.1,0.3-0.1,0.7-0.4,0.8l-11.3,3.7
							c-9.2,3-19-2-22-11.2l-3.9-12.1C448.8,310.7,449,310.3,449.3,310.2z"/>
					</g>
					<g>
						<path class="st10" d="M447.7,305.9l13.8-2.7c11.1-2.2,21.8,5.1,24,16.2l2.9,14.7c0.1,0.4-0.2,0.8-0.6,0.9l-13.8,2.7
							c-11.1,2.2-21.9-5.1-24-16.2l-2.9-14.7C447,306.4,447.3,305.9,447.7,305.9z"/>
					</g>
					<g>
						<path class="st11" d="M446.4,300.5l16.5-1.1c13.3-0.9,24.8,9.1,25.7,22.3l1.2,17.6c0,0.5-0.3,1-0.9,1l-16.5,1.1
							c-13.3,0.9-24.8-9.1-25.7-22.4l-1.2-17.6C445.5,301,445.9,300.6,446.4,300.5z"/>
					</g>
					<g>
						<path class="st12" d="M445.7,294.2l19.4,1c15.6,0.8,27.6,14.2,26.8,29.8l-1.1,20.7c0,0.6-0.5,1.1-1.1,1l-19.4-1
							c-15.6-0.8-27.7-14.2-26.8-29.8l1.1-20.7C444.6,294.6,445.1,294.1,445.7,294.2z"/>
					</g>
					<g>
						<path class="st13" d="M445.8,286.6l22.5,4c18.1,3.2,30.2,20.5,27.1,38.6l-4.2,24c-0.1,0.7-0.8,1.2-1.5,1l-22.5-4
							c-18.1-3.2-30.3-20.5-27.1-38.7l4.2-24C444.4,286.9,445.1,286.5,445.8,286.6z"/>
					</g>
					<g>
						<path class="st14" d="M447,277.8l25.7,7.9c20.7,6.3,32.4,28.3,26,49l-8.4,27.5c-0.2,0.8-1.1,1.2-1.9,1l-25.7-7.9
							c-20.7-6.3-32.4-28.3-26.1-49l8.4-27.4C445.3,278,446.2,277.5,447,277.8z"/>
					</g>
					<g>
						<path class="st15" d="M449.6,267.6l28.9,12.9c23.3,10.4,33.8,37.6,23.4,60.9l-13.7,30.9c-0.4,0.9-1.4,1.3-2.3,0.9L457,360.4
							c-23.3-10.4-33.8-37.7-23.4-61l13.7-30.8C447.7,267.6,448.7,267.2,449.6,267.6z"/>
					</g>
					<g>
						<path class="st16" d="M454.1,256.2l31.9,19.2c25.7,15.4,34,48.8,18.6,74.5L484.2,384c-0.6,1-1.9,1.3-2.9,0.7l-31.9-19.2
							c-25.7-15.5-34-48.8-18.6-74.6l20.5-34C451.9,255.9,453.1,255.6,454.1,256.2z"/>
					</g>
					<g>
						<path class="st17" d="M461.1,243.5l34.5,27c27.8,21.7,32.7,61.9,11,89.7L477.8,397c-0.8,1.1-2.4,1.3-3.4,0.4l-34.5-27
							c-27.8-21.7-32.8-61.9-11-89.7l28.8-36.8C458.5,242.8,460,242.6,461.1,243.5z"/>
					</g>
					<g>
						<path class="st18" d="M471,229.6l36.5,36.5c29.4,29.4,29.4,76.9,0,106.3l-38.9,38.9c-1.1,1.1-3,1.1-4.1,0L428,374.8
							c-29.4-29.4-29.4-77,0-106.3l38.9-38.9C468,228.5,469.9,228.5,471,229.6z"/>
					</g>
				</g>
				<g>
					<g>
						<path class="st3" d="M477.7,142.8l-3.9,2.3c-3.1,1.8-7.2,0.7-9-2.4l-2.4-4.2c-0.1-0.1,0-0.3,0.1-0.3l3.9-2.3
							c3.1-1.8,7.2-0.7,9,2.4l2.4,4.2C477.8,142.6,477.8,142.8,477.7,142.8z"/>
					</g>
					<g>
						<path class="st4" d="M479.3,142.1l-4.2,3.2c-3.4,2.6-8.2,1.9-10.8-1.5l-3.4-4.5c-0.1-0.1-0.1-0.3,0.1-0.4l4.2-3.2
							c3.4-2.6,8.3-1.9,10.8,1.5l3.4,4.5C479.4,141.9,479.4,142,479.3,142.1z"/>
					</g>
					<g>
						<path class="st5" d="M481.1,141.1l-4.5,4.3c-3.6,3.5-9.4,3.4-12.8-0.2l-4.6-4.8c-0.1-0.1-0.1-0.4,0-0.5l4.5-4.3
							c3.6-3.5,9.4-3.4,12.9,0.2l4.6,4.8C481.2,140.7,481.2,141,481.1,141.1z"/>
					</g>
					<g>
						<path class="st6" d="M483,139.6l-4.6,5.7c-3.7,4.6-10.4,5.3-15,1.6l-6.1-4.9c-0.2-0.1-0.2-0.4-0.1-0.6l4.6-5.7
							c3.7-4.6,10.5-5.3,15-1.6l6.1,4.9C483.1,139.2,483.1,139.4,483,139.6z"/>
					</g>
					<g>
						<path class="st7" d="M485,137.6l-4.6,7.3c-3.7,5.9-11.4,7.7-17.3,4l-7.8-4.9c-0.2-0.1-0.3-0.4-0.2-0.7l4.6-7.3
							c3.7-5.9,11.4-7.7,17.3-4l7.8,4.9C485.1,137.1,485.2,137.4,485,137.6z"/>
					</g>
					<g>
						<path class="st8" d="M487.1,135l-4.3,9.2c-3.4,7.4-12.3,10.6-19.7,7.2l-9.8-4.6c-0.3-0.1-0.4-0.5-0.3-0.8l4.3-9.2
							c3.5-7.4,12.3-10.6,19.7-7.2l9.8,4.6C487.1,134.4,487.2,134.7,487.1,135z"/>
					</g>
					<g>
						<path class="st9" d="M489.2,131.6l-3.7,11.4c-3,9.1-12.8,14.1-21.9,11.2l-12.1-3.9c-0.3-0.1-0.5-0.5-0.4-0.8l3.7-11.3
							c3-9.2,12.8-14.2,22-11.2l12.1,3.9C489.1,130.9,489.3,131.3,489.2,131.6z"/>
					</g>
					<g>
						<path class="st10" d="M491.1,127.4l-2.7,13.8c-2.2,11.1-12.9,18.4-24,16.2l-14.7-2.9c-0.4-0.1-0.7-0.5-0.6-0.9l2.7-13.8
							c2.2-11.1,12.9-18.4,24-16.2l14.7,2.9C490.9,126.6,491.2,127,491.1,127.4z"/>
					</g>
					<g>
						<path class="st11" d="M492.8,122.2l-1.1,16.5c-0.9,13.3-12.4,23.3-25.7,22.3l-17.6-1.2c-0.5,0-0.9-0.5-0.9-1l1.1-16.5
							c0.9-13.3,12.5-23.3,25.7-22.4l17.6,1.2C492.4,121.2,492.8,121.7,492.8,122.2z"/>
					</g>
					<g>
						<path class="st12" d="M493.9,115.9l1,19.4c0.8,15.6-11.2,29-26.8,29.8l-20.7,1.1c-0.6,0-1.1-0.4-1.1-1l-1-19.4
							c-0.8-15.6,11.2-29,26.8-29.8l20.7-1.1C493.4,114.8,493.9,115.3,493.9,115.9z"/>
					</g>
					<g>
						<path class="st13" d="M494.4,108.3l4,22.5c3.2,18.1-8.9,35.4-27.1,38.6l-24,4.2c-0.7,0.1-1.4-0.3-1.5-1l-4-22.5
							c-3.2-18.1,8.9-35.5,27.1-38.7l24-4.2C493.6,107.2,494.3,107.6,494.4,108.3z"/>
					</g>
					<g>
						<path class="st14" d="M493.8,99.4l7.9,25.7c6.3,20.7-5.3,42.7-26,49l-27.5,8.4c-0.8,0.2-1.6-0.2-1.9-1l-7.9-25.7
							c-6.3-20.7,5.3-42.7,26.1-49l27.4-8.4C492.8,98.2,493.6,98.6,493.8,99.4z"/>
					</g>
					<g>
						<path class="st15" d="M491.9,89.2l12.9,28.9c10.4,23.3-0.1,50.6-23.4,60.9l-30.9,13.7c-0.9,0.4-1.9,0-2.3-0.9L435.4,163
							c-10.4-23.3,0.1-50.6,23.4-61l30.8-13.7C490.5,87.9,491.5,88.3,491.9,89.2z"/>
					</g>
					<g>
						<path class="st16" d="M488.2,77.4l19.2,31.9c15.4,25.7,7.1,59.1-18.6,74.5l-34.1,20.5c-1,0.6-2.3,0.3-2.9-0.7l-19.2-31.9
							c-15.5-25.7-7.1-59.1,18.6-74.6l34-20.5C486.4,76.1,487.7,76.4,488.2,77.4z"/>
					</g>
					<g>
						<path class="st17" d="M482.2,64.2l27,34.5c21.7,27.8,16.8,67.9-11,89.7l-36.9,28.8c-1.1,0.8-2.6,0.6-3.4-0.4l-27-34.5
							c-21.7-27.8-16.8-68,11-89.7l36.8-28.8C479.9,63,481.4,63.1,482.2,64.2z"/>
					</g>
					<g>
						<path class="st18" d="M473.3,49.7l36.5,36.5c29.4,29.4,29.4,76.9,0,106.3l-38.9,38.9c-1.1,1.1-3,1.1-4.1,0l-36.4-36.4
							c-29.4-29.4-29.4-77,0-106.3l38.9-38.9C470.4,48.6,472.2,48.6,473.3,49.7z"/>
					</g>
				</g>
				<g>
					<g>
						<path class="st3" d="M464.7-36.1l2.3-3.9c1.8-3.1,5.8-4.2,9-2.4l4.2,2.4c0.1,0.1,0.2,0.2,0.1,0.3l-2.3,3.9
							c-1.8,3.1-5.8,4.2-9,2.4l-4.2-2.4C464.7-35.8,464.6-36,464.7-36.1z"/>
					</g>
					<g>
						<path class="st4" d="M463.1-36.9l3.2-4.2c2.6-3.4,7.4-4.1,10.8-1.5l4.5,3.4c0.1,0.1,0.2,0.3,0.1,0.4l-3.2,4.2
							c-2.6,3.4-7.4,4.1-10.8,1.5l-4.5-3.4C463.1-36.6,463-36.8,463.1-36.9z"/>
					</g>
					<g>
						<path class="st5" d="M461.4-38.1l4.3-4.5c3.5-3.6,9.2-3.7,12.8-0.2l4.8,4.6c0.1,0.1,0.1,0.4,0,0.5l-4.3,4.5
							c-3.5,3.6-9.2,3.7-12.9,0.2l-4.8-4.6C461.3-37.7,461.3-38,461.4-38.1z"/>
					</g>
					<g>
						<path class="st6" d="M459.6-39.7l5.7-4.6c4.6-3.7,11.3-3,15,1.6l4.9,6.1c0.1,0.2,0.1,0.4-0.1,0.6l-5.7,4.6
							c-4.6,3.7-11.3,3-15-1.6l-4.9-6.1C459.4-39.3,459.5-39.6,459.6-39.7z"/>
					</g>
					<g>
						<path class="st7" d="M457.7-41.8l7.3-4.6c5.9-3.7,13.6-1.9,17.3,4l4.9,7.8c0.1,0.2,0.1,0.5-0.2,0.7l-7.3,4.6
							c-5.9,3.7-13.7,1.9-17.3-4l-4.9-7.8C457.4-41.4,457.5-41.7,457.7-41.8z"/>
					</g>
					<g>
						<path class="st8" d="M455.8-44.6l9.2-4.3c7.4-3.4,16.2-0.2,19.7,7.2l4.6,9.8c0.1,0.3,0,0.6-0.3,0.8l-9.2,4.3
							c-7.4,3.5-16.2,0.2-19.7-7.2l-4.6-9.8C455.4-44.1,455.6-44.5,455.8-44.6z"/>
					</g>
					<g>
						<path class="st9" d="M454-48.1l11.4-3.7c9.1-3,19,2,21.9,11.2l3.9,12.1c0.1,0.3-0.1,0.7-0.4,0.8L479.5-24c-9.2,3-19-2-22-11.2
							l-3.9-12.1C453.5-47.6,453.7-48,454-48.1z"/>
					</g>
					<g>
						<path class="st10" d="M452.4-52.5l13.8-2.7c11.1-2.2,21.8,5.1,24,16.2l2.9,14.7c0.1,0.4-0.2,0.8-0.6,0.9l-13.8,2.7
							c-11.1,2.2-21.9-5.1-24-16.2l-2.9-14.7C451.7-52,452-52.4,452.4-52.5z"/>
					</g>
					<g>
						<path class="st11" d="M451.1-57.8l16.5-1.1c13.3-0.9,24.8,9.1,25.7,22.3l1.2,17.6c0,0.5-0.3,1-0.9,1l-16.5,1.1
							c-13.3,0.9-24.8-9.1-25.7-22.4l-1.2-17.6C450.2-57.3,450.6-57.7,451.1-57.8z"/>
					</g>
					<g>
						<path class="st12" d="M450.4-64.2l19.4,1c15.6,0.8,27.6,14.2,26.8,29.8l-1.1,20.7c0,0.6-0.5,1.1-1.1,1l-19.4-1
							c-15.6-0.8-27.7-14.2-26.8-29.8l1.1-20.7C449.3-63.7,449.8-64.2,450.4-64.2z"/>
					</g>
					<g>
						<path class="st13" d="M450.5-71.7l22.5,4c18.1,3.2,30.2,20.5,27.1,38.6l-4.2,24c-0.1,0.7-0.8,1.2-1.5,1l-22.5-4
							c-18.1-3.2-30.3-20.5-27.1-38.7l4.2-24C449.1-71.4,449.8-71.9,450.5-71.7z"/>
					</g>
					<g>
						<path class="st14" d="M451.7-80.6l25.7,7.9c20.7,6.3,32.4,28.3,26,49l-8.4,27.5c-0.2,0.8-1.1,1.2-1.9,1l-25.7-7.9
							c-20.7-6.3-32.4-28.3-26.1-49l8.4-27.4C450-80.3,450.9-80.8,451.7-80.6z"/>
					</g>
					<g>
						<path class="st15" d="M454.3-90.7l28.9,12.9c23.3,10.4,33.8,37.6,23.4,60.9L492.9,14c-0.4,0.9-1.4,1.3-2.3,0.9L461.6,2
							c-23.3-10.4-33.8-37.7-23.4-61L452-89.8C452.4-90.7,453.4-91.1,454.3-90.7z"/>
					</g>
					<g>
						<path class="st16" d="M458.8-102.1l31.9,19.2c25.7,15.4,34,48.8,18.6,74.5l-20.5,34.1c-0.6,1-1.9,1.3-2.9,0.7L454.1,7.2
							c-25.7-15.5-34-48.8-18.6-74.6l20.5-34C456.6-102.4,457.8-102.7,458.8-102.1z"/>
					</g>
					<g>
						<path class="st17" d="M465.8-114.9l34.5,27c27.8,21.7,32.7,61.9,11,89.7l-28.8,36.9c-0.8,1.1-2.4,1.3-3.4,0.4l-34.5-27
							c-27.8-21.7-32.8-61.9-11-89.7l28.8-36.8C463.2-115.5,464.7-115.7,465.8-114.9z"/>
					</g>
					<g>
						<path class="st18" d="M475.7-128.7l36.5,36.5c29.4,29.4,29.4,76.9,0,106.3l-38.9,38.9c-1.1,1.1-3,1.1-4.1,0l-36.4-36.4
							c-29.4-29.4-29.4-77,0-106.3l38.9-38.9C472.7-129.8,474.6-129.8,475.7-128.7z"/>
					</g>
				</g>
			</g>
			<g>
				<g>
					<g>
						<path class="st3" d="M220.1,501.8l-3.9,2.3c-3.1,1.8-7.2,0.7-9-2.4l-2.4-4.2c-0.1-0.1,0-0.3,0.1-0.3l3.9-2.3
							c3.1-1.8,7.2-0.7,9,2.4l2.4,4.2C220.3,501.5,220.2,501.7,220.1,501.8z"/>
					</g>
					<g>
						<path class="st4" d="M221.7,501.1l-4.2,3.2c-3.4,2.6-8.2,1.9-10.8-1.5l-3.4-4.5c-0.1-0.1-0.1-0.3,0.1-0.4l4.2-3.2
							c3.4-2.6,8.3-1.9,10.8,1.5l3.4,4.5C221.9,500.8,221.8,501,221.7,501.1z"/>
					</g>
					<g>
						<path class="st5" d="M223.5,500l-4.5,4.3c-3.6,3.5-9.4,3.4-12.8-0.2l-4.6-4.8c-0.1-0.1-0.1-0.4,0-0.5l4.5-4.3
							c3.6-3.5,9.4-3.4,12.9,0.2l4.6,4.8C223.6,499.7,223.6,499.9,223.5,500z"/>
					</g>
					<g>
						<path class="st6" d="M225.4,498.5l-4.6,5.7c-3.7,4.6-10.4,5.3-15,1.6l-6.1-4.9c-0.2-0.1-0.2-0.4-0.1-0.6l4.6-5.7
							c3.7-4.6,10.5-5.3,15-1.6l6.1,4.9C225.5,498.1,225.5,498.4,225.4,498.5z"/>
					</g>
					<g>
						<path class="st7" d="M227.4,496.5l-4.6,7.3c-3.7,5.9-11.4,7.7-17.3,4l-7.8-4.9c-0.2-0.1-0.3-0.4-0.2-0.7l4.6-7.3
							c3.7-5.9,11.4-7.7,17.3-4l7.8,4.9C227.5,496,227.6,496.3,227.4,496.5z"/>
					</g>
					<g>
						<path class="st8" d="M229.5,493.9l-4.3,9.2c-3.4,7.4-12.3,10.6-19.7,7.2l-9.8-4.6c-0.3-0.1-0.4-0.5-0.3-0.8l4.3-9.2
							c3.5-7.4,12.3-10.6,19.7-7.2l9.8,4.6C229.5,493.3,229.7,493.6,229.5,493.9z"/>
					</g>
					<g>
						<path class="st9" d="M231.6,490.6l-3.7,11.4c-3,9.1-12.8,14.1-21.9,11.2l-12.1-3.9c-0.3-0.1-0.5-0.5-0.4-0.8l3.7-11.3
							c3-9.2,12.8-14.2,22-11.2l12.1,3.9C231.5,489.8,231.7,490.2,231.6,490.6z"/>
					</g>
					<g>
						<path class="st10" d="M233.5,486.3l-2.7,13.8c-2.2,11.1-12.9,18.4-24,16.2l-14.7-2.9c-0.4-0.1-0.7-0.5-0.6-0.9l2.7-13.8
							c2.2-11.1,12.9-18.4,24-16.2l14.7,2.9C233.3,485.5,233.6,485.9,233.5,486.3z"/>
					</g>
					<g>
						<path class="st11" d="M235.2,481.1l-1.1,16.5c-0.9,13.3-12.4,23.3-25.7,22.3l-17.6-1.2c-0.5,0-0.9-0.5-0.9-1l1.1-16.5
							c0.9-13.3,12.5-23.3,25.7-22.4l17.6,1.2C234.8,480.2,235.2,480.6,235.2,481.1z"/>
					</g>
					<g>
						<path class="st12" d="M236.3,474.8l1,19.4c0.8,15.6-11.2,29-26.8,29.8l-20.7,1.1c-0.6,0-1.1-0.4-1.1-1l-1-19.4
							c-0.8-15.6,11.2-29,26.8-29.8l20.7-1.1C235.8,473.7,236.3,474.2,236.3,474.8z"/>
					</g>
					<g>
						<path class="st13" d="M236.8,467.2l4,22.5c3.2,18.1-8.9,35.4-27.1,38.6l-24,4.2c-0.7,0.1-1.4-0.3-1.5-1l-4-22.5
							c-3.2-18.1,8.9-35.5,27.1-38.7l24-4.2C236,466.1,236.7,466.6,236.8,467.2z"/>
					</g>
					<g>
						<path class="st14" d="M236.3,458.4l7.9,25.7c6.3,20.7-5.3,42.7-26,49l-27.5,8.4c-0.8,0.2-1.6-0.2-1.9-1l-7.9-25.7
							c-6.3-20.7,5.3-42.7,26.1-49l27.4-8.4C235.2,457.1,236,457.6,236.3,458.4z"/>
					</g>
					<g>
						<path class="st15" d="M234.4,448.1l12.9,28.9c10.4,23.3-0.1,50.6-23.4,60.9L193,551.7c-0.9,0.4-1.9,0-2.3-0.9l-12.9-28.9
							c-10.4-23.3,0.1-50.6,23.4-61l30.8-13.7C232.9,446.8,234,447.2,234.4,448.1z"/>
					</g>
					<g>
						<path class="st16" d="M230.7,436.3l19.2,31.9c15.4,25.7,7.1,59.1-18.6,74.5l-34.1,20.5c-1,0.6-2.3,0.3-2.9-0.7l-19.2-31.9
							c-15.5-25.7-7.1-59.1,18.6-74.6l34-20.5C228.8,435,230.1,435.3,230.7,436.3z"/>
					</g>
					<g>
						<path class="st17" d="M224.7,423.1l27,34.5c21.7,27.8,16.8,67.9-11,89.7l-36.9,28.8c-1.1,0.8-2.6,0.6-3.4-0.4l-27-34.5
							c-21.7-27.8-16.8-68,11-89.7l36.8-28.8C222.3,421.9,223.8,422.1,224.7,423.1z"/>
					</g>
					<g>
						<path class="st18" d="M215.8,408.6l36.5,36.5c29.4,29.4,29.4,76.9,0,106.3l-38.9,38.9c-1.1,1.1-3,1.1-4.1,0l-36.4-36.4
							c-29.4-29.4-29.4-77,0-106.3l38.9-38.9C212.8,407.5,214.6,407.5,215.8,408.6z"/>
					</g>
				</g>
				<g>
					<g>
						<path class="st3" d="M204.7,680.7l2.3-3.9c1.8-3.1,5.8-4.2,9-2.4l4.2,2.4c0.1,0.1,0.2,0.2,0.1,0.3l-2.3,3.9
							c-1.8,3.1-5.8,4.2-9,2.4l-4.2-2.4C204.7,681,204.6,680.8,204.7,680.7z"/>
					</g>
					<g>
						<path class="st4" d="M203.1,679.9l3.2-4.2c2.6-3.4,7.4-4.1,10.8-1.5l4.5,3.4c0.1,0.1,0.2,0.3,0.1,0.4l-3.2,4.2
							c-2.6,3.4-7.4,4.1-10.8,1.5l-4.5-3.4C203.1,680.2,203,680,203.1,679.9z"/>
					</g>
					<g>
						<path class="st5" d="M201.4,678.7l4.3-4.5c3.5-3.6,9.2-3.7,12.8-0.2l4.8,4.6c0.1,0.1,0.1,0.4,0,0.5l-4.3,4.5
							c-3.5,3.6-9.2,3.7-12.9,0.2l-4.8-4.6C201.3,679.1,201.3,678.8,201.4,678.7z"/>
					</g>
					<g>
						<path class="st6" d="M199.6,677.1l5.7-4.6c4.6-3.7,11.3-3,15,1.6l4.9,6.1c0.1,0.2,0.1,0.4-0.1,0.6l-5.7,4.6
							c-4.6,3.7-11.3,3-15-1.6l-4.9-6.1C199.4,677.5,199.4,677.2,199.6,677.1z"/>
					</g>
					<g>
						<path class="st7" d="M197.7,674.9l7.3-4.6c5.9-3.7,13.6-1.9,17.3,4l4.9,7.8c0.1,0.2,0.1,0.5-0.2,0.7l-7.3,4.6
							c-5.9,3.7-13.7,1.9-17.3-4l-4.9-7.8C197.4,675.4,197.5,675.1,197.7,674.9z"/>
					</g>
					<g>
						<path class="st8" d="M195.8,672.2l9.2-4.3c7.4-3.4,16.2-0.2,19.7,7.2l4.6,9.8c0.1,0.3,0,0.6-0.3,0.8l-9.2,4.3
							c-7.4,3.5-16.2,0.2-19.7-7.2l-4.6-9.8C195.4,672.6,195.5,672.3,195.8,672.2z"/>
					</g>
					<g>
						<path class="st9" d="M194,668.7l11.4-3.7c9.1-3,19,2,21.9,11.2l3.9,12.1c0.1,0.3-0.1,0.7-0.4,0.8l-11.3,3.7
							c-9.2,3-19-2-22-11.2l-3.9-12.1C193.5,669.2,193.7,668.8,194,668.7z"/>
					</g>
					<g>
						<path class="st10" d="M192.4,664.3l13.8-2.7c11.1-2.2,21.8,5.1,24,16.2l2.9,14.7c0.1,0.4-0.2,0.8-0.6,0.9l-13.8,2.7
							c-11.1,2.2-21.9-5.1-24-16.2l-2.9-14.7C191.7,664.8,192,664.4,192.4,664.3z"/>
					</g>
					<g>
						<path class="st11" d="M191.1,659l16.5-1.1c13.3-0.9,24.8,9.1,25.7,22.3l1.2,17.6c0,0.5-0.3,1-0.9,1l-16.5,1.1
							c-13.3,0.9-24.8-9.1-25.7-22.4l-1.2-17.6C190.2,659.5,190.6,659,191.1,659z"/>
					</g>
					<g>
						<path class="st12" d="M190.4,652.6l19.4,1c15.6,0.8,27.6,14.2,26.8,29.8l-1.1,20.7c0,0.6-0.5,1.1-1.1,1l-19.4-1
							c-15.6-0.8-27.7-14.2-26.8-29.8l1.1-20.7C189.3,653.1,189.8,652.6,190.4,652.6z"/>
					</g>
					<g>
						<path class="st13" d="M190.5,645.1l22.5,4c18.1,3.2,30.2,20.5,27.1,38.6l-4.2,24c-0.1,0.7-0.8,1.2-1.5,1l-22.5-4
							c-18.1-3.2-30.3-20.5-27.1-38.7l4.2-24C189.1,645.4,189.8,644.9,190.5,645.1z"/>
					</g>
					<g>
						<path class="st14" d="M191.7,636.2l25.7,7.9c20.7,6.3,32.4,28.3,26,49l-8.4,27.5c-0.2,0.8-1.1,1.2-1.9,1l-25.7-7.9
							c-20.7-6.3-32.4-28.3-26.1-49l8.4-27.4C190,636.4,190.9,636,191.7,636.2z"/>
					</g>
					<g>
						<path class="st15" d="M194.3,626.1l28.9,12.9c23.3,10.4,33.8,37.6,23.4,60.9l-13.7,30.9c-0.4,0.9-1.4,1.3-2.3,0.9l-28.9-12.9
							c-23.3-10.4-33.8-37.7-23.4-61L192,627C192.4,626.1,193.4,625.7,194.3,626.1z"/>
					</g>
					<g>
						<path class="st16" d="M198.8,614.7l31.9,19.2c25.7,15.4,34,48.8,18.6,74.5l-20.5,34.1c-0.6,1-1.9,1.3-2.9,0.7L194.1,724
							c-25.7-15.5-34-48.8-18.6-74.6l20.5-34C196.6,614.4,197.8,614.1,198.8,614.7z"/>
					</g>
					<g>
						<path class="st17" d="M205.8,601.9l34.5,27c27.8,21.7,32.7,61.9,11,89.7l-28.8,36.9c-0.8,1.1-2.4,1.3-3.4,0.4l-34.5-27
							c-27.8-21.7-32.8-61.9-11-89.7l28.8-36.8C203.1,601.3,204.7,601.1,205.8,601.9z"/>
					</g>
					<g>
						<path class="st18" d="M215.7,588.1l36.5,36.5c29.4,29.4,29.4,76.9,0,106.3l-38.9,38.9c-1.1,1.1-3,1.1-4.1,0l-36.4-36.4
							c-29.4-29.4-29.4-77,0-106.3l38.9-38.9C212.7,586.9,214.5,586.9,215.7,588.1z"/>
					</g>
				</g>
				<g>
					<g>
						<path class="st3" d="M203.3,321.3l2.3-3.9c1.8-3.1,5.8-4.2,9-2.4l4.2,2.4c0.1,0.1,0.2,0.2,0.1,0.3l-2.3,3.9
							c-1.8,3.1-5.8,4.2-9,2.4l-4.2-2.4C203.3,321.6,203.3,321.5,203.3,321.3z"/>
					</g>
					<g>
						<path class="st4" d="M201.8,320.5l3.2-4.2c2.6-3.4,7.4-4.1,10.8-1.5l4.5,3.4c0.1,0.1,0.2,0.3,0.1,0.4l-3.2,4.2
							c-2.6,3.4-7.4,4.1-10.8,1.5l-4.5-3.4C201.7,320.8,201.7,320.7,201.8,320.5z"/>
					</g>
					<g>
						<path class="st5" d="M200.1,319.4l4.3-4.5c3.5-3.6,9.2-3.7,12.8-0.2l4.8,4.6c0.1,0.1,0.1,0.4,0,0.5l-4.3,4.5
							c-3.5,3.6-9.2,3.7-12.9,0.2l-4.8-4.6C200,319.7,200,319.5,200.1,319.4z"/>
					</g>
					<g>
						<path class="st6" d="M198.3,317.7l5.7-4.6c4.6-3.7,11.3-3,15,1.6l4.9,6.1c0.1,0.2,0.1,0.4-0.1,0.6l-5.7,4.6
							c-4.6,3.7-11.3,3-15-1.6l-4.9-6.1C198.1,318.2,198.1,317.9,198.3,317.7z"/>
					</g>
					<g>
						<path class="st7" d="M196.4,315.6l7.3-4.6c5.9-3.7,13.6-1.9,17.3,4l4.9,7.8c0.1,0.2,0.1,0.5-0.2,0.7l-7.3,4.6
							c-5.9,3.7-13.7,1.9-17.3-4l-4.9-7.8C196.1,316.1,196.2,315.8,196.4,315.6z"/>
					</g>
					<g>
						<path class="st8" d="M194.5,312.8l9.2-4.3c7.4-3.4,16.2-0.2,19.7,7.2l4.6,9.8c0.1,0.3,0,0.6-0.3,0.8l-9.2,4.3
							c-7.4,3.5-16.2,0.2-19.7-7.2l-4.6-9.8C194.1,313.3,194.2,313,194.5,312.8z"/>
					</g>
					<g>
						<path class="st9" d="M192.7,309.3l11.4-3.7c9.1-3,19,2,21.9,11.2l3.9,12.1c0.1,0.3-0.1,0.7-0.4,0.8l-11.3,3.7
							c-9.2,3-19-2-22-11.2l-3.9-12.1C192.1,309.8,192.3,309.5,192.7,309.3z"/>
					</g>
					<g>
						<path class="st10" d="M191.1,305l13.8-2.7c11.1-2.2,21.8,5.1,24,16.2l2.9,14.7c0.1,0.4-0.2,0.8-0.6,0.9l-13.8,2.7
							c-11.1,2.2-21.9-5.1-24-16.2l-2.9-14.7C190.4,305.5,190.6,305.1,191.1,305z"/>
					</g>
					<g>
						<path class="st11" d="M189.8,299.7l16.5-1.1c13.3-0.9,24.8,9.1,25.7,22.3l1.2,17.6c0,0.5-0.3,1-0.9,1l-16.5,1.1
							c-13.3,0.9-24.8-9.1-25.7-22.4l-1.2-17.6C188.9,300.2,189.3,299.7,189.8,299.7z"/>
					</g>
					<g>
						<path class="st12" d="M189.1,293.3l19.4,1c15.6,0.8,27.6,14.2,26.8,29.8l-1.1,20.7c0,0.6-0.5,1.1-1.1,1l-19.4-1
							C198,344,186,330.7,186.8,315l1.1-20.7C188,293.7,188.5,293.3,189.1,293.3z"/>
					</g>
					<g>
						<path class="st13" d="M189.1,285.7l22.5,4c18.1,3.2,30.2,20.5,27.1,38.6l-4.2,24c-0.1,0.7-0.8,1.2-1.5,1l-22.5-4
							c-18.1-3.2-30.3-20.5-27.1-38.7l4.2-24C187.8,286.1,188.4,285.6,189.1,285.7z"/>
					</g>
					<g>
						<path class="st14" d="M190.3,276.9l25.7,7.9c20.7,6.3,32.4,28.3,26,49l-8.4,27.5c-0.2,0.8-1.1,1.2-1.9,1l-25.7-7.9
							c-20.7-6.3-32.4-28.3-26.1-49l8.4-27.4C188.7,277.1,189.5,276.7,190.3,276.9z"/>
					</g>
					<g>
						<path class="st15" d="M193,266.8l28.9,12.9c23.3,10.4,33.8,37.6,23.4,60.9l-13.7,30.9c-0.4,0.9-1.4,1.3-2.3,0.9l-28.9-12.9
							c-23.3-10.4-33.8-37.7-23.4-61l13.7-30.8C191,266.8,192.1,266.4,193,266.8z"/>
					</g>
					<g>
						<path class="st16" d="M197.5,255.3l31.9,19.2c25.7,15.4,34,48.8,18.6,74.5l-20.5,34.1c-0.6,1-1.9,1.3-2.9,0.7l-31.9-19.2
							c-25.7-15.5-34-48.8-18.6-74.6l20.5-34C195.2,255,196.5,254.7,197.5,255.3z"/>
					</g>
					<g>
						<path class="st17" d="M204.4,242.6l34.5,27c27.8,21.7,32.7,61.9,11,89.7l-28.8,36.9c-0.8,1.1-2.4,1.3-3.4,0.4l-34.5-27
							c-27.8-21.7-32.8-61.9-11-89.7L201,243C201.8,241.9,203.4,241.8,204.4,242.6z"/>
					</g>
					<g>
						<path class="st18" d="M214.3,228.7l36.5,36.5c29.4,29.4,29.4,76.9,0,106.3l-38.9,38.9c-1.1,1.1-3,1.1-4.1,0L171.4,374
							c-29.4-29.4-29.4-77,0-106.3l38.9-38.9C211.4,227.6,213.2,227.6,214.3,228.7z"/>
					</g>
				</g>
				<g>
					<g>
						<path class="st3" d="M221,142l-3.9,2.3c-3.1,1.8-7.2,0.7-9-2.4l-2.4-4.2c-0.1-0.1,0-0.3,0.1-0.3l3.9-2.3
							c3.1-1.8,7.2-0.7,9,2.4l2.4,4.2C221.2,141.7,221.1,141.9,221,142z"/>
					</g>
					<g>
						<path class="st4" d="M222.6,141.3l-4.2,3.2c-3.4,2.6-8.2,1.9-10.8-1.5l-3.4-4.5c-0.1-0.1-0.1-0.3,0.1-0.4l4.2-3.2
							c3.4-2.6,8.3-1.9,10.8,1.5l3.4,4.5C222.8,141,222.8,141.2,222.6,141.3z"/>
					</g>
					<g>
						<path class="st5" d="M224.4,140.2l-4.5,4.3c-3.6,3.5-9.4,3.4-12.8-0.2l-4.6-4.8c-0.1-0.1-0.1-0.4,0-0.5l4.5-4.3
							c3.6-3.5,9.4-3.4,12.9,0.2l4.6,4.8C224.5,139.9,224.5,140.1,224.4,140.2z"/>
					</g>
					<g>
						<path class="st6" d="M226.3,138.7l-4.6,5.7c-3.7,4.6-10.4,5.3-15,1.6l-6.1-4.9c-0.2-0.1-0.2-0.4-0.1-0.6l4.6-5.7
							c3.7-4.6,10.5-5.3,15-1.6l6.1,4.9C226.5,138.3,226.5,138.6,226.3,138.7z"/>
					</g>
					<g>
						<path class="st7" d="M228.4,136.8l-4.6,7.3c-3.7,5.9-11.4,7.7-17.3,4l-7.8-4.9c-0.2-0.1-0.3-0.4-0.2-0.7l4.6-7.3
							c3.7-5.9,11.4-7.7,17.3-4l7.8,4.9C228.4,136.2,228.5,136.5,228.4,136.8z"/>
					</g>
					<g>
						<path class="st8" d="M230.5,134.1l-4.3,9.2c-3.4,7.4-12.3,10.6-19.7,7.2l-9.8-4.6c-0.3-0.1-0.4-0.5-0.3-0.8l4.3-9.2
							c3.5-7.4,12.3-10.6,19.7-7.2l9.8,4.6C230.5,133.5,230.6,133.8,230.5,134.1z"/>
					</g>
					<g>
						<path class="st9" d="M232.5,130.8l-3.7,11.4c-3,9.1-12.8,14.1-21.9,11.2l-12.1-3.9c-0.3-0.1-0.5-0.5-0.4-0.8l3.7-11.3
							c3-9.2,12.8-14.2,22-11.2l12.1,3.9C232.4,130,232.6,130.4,232.5,130.8z"/>
					</g>
					<g>
						<path class="st10" d="M234.5,126.5l-2.7,13.8c-2.2,11.1-12.9,18.4-24,16.2l-14.7-2.9c-0.4-0.1-0.7-0.5-0.6-0.9l2.7-13.8
							c2.2-11.1,12.9-18.4,24-16.2l14.7,2.9C234.3,125.7,234.5,126.1,234.5,126.5z"/>
					</g>
					<g>
						<path class="st11" d="M236.1,121.3l-1.1,16.5c-0.9,13.3-12.4,23.3-25.7,22.3l-17.6-1.2c-0.5,0-0.9-0.5-0.9-1l1.1-16.5
							c0.9-13.3,12.5-23.3,25.7-22.4l17.6,1.2C235.7,120.4,236.1,120.8,236.1,121.3z"/>
					</g>
					<g>
						<path class="st12" d="M237.3,115l1,19.4c0.8,15.6-11.2,29-26.8,29.8l-20.7,1.1c-0.6,0-1.1-0.4-1.1-1l-1-19.4
							c-0.8-15.6,11.2-29,26.8-29.8l20.7-1.1C236.7,113.9,237.2,114.4,237.3,115z"/>
					</g>
					<g>
						<path class="st13" d="M237.7,107.4l4,22.5c3.2,18.1-8.9,35.4-27.1,38.6l-24,4.2c-0.7,0.1-1.4-0.3-1.5-1l-4-22.5
							c-3.2-18.1,8.9-35.5,27.1-38.7l24-4.2C236.9,106.3,237.6,106.8,237.7,107.4z"/>
					</g>
					<g>
						<path class="st14" d="M237.2,98.6l7.9,25.7c6.3,20.7-5.3,42.7-26,49l-27.5,8.4c-0.8,0.2-1.6-0.2-1.9-1l-7.9-25.7
							c-6.3-20.7,5.3-42.7,26.1-49l27.4-8.4C236.1,97.3,237,97.8,237.2,98.6z"/>
					</g>
					<g>
						<path class="st15" d="M235.3,88.3l12.9,28.9c10.4,23.3-0.1,50.6-23.4,60.9l-30.9,13.7c-0.9,0.4-1.9,0-2.3-0.9l-12.9-28.9
							c-10.4-23.3,0.1-50.6,23.4-61L233,87.4C233.8,87,234.9,87.4,235.3,88.3z"/>
					</g>
					<g>
						<path class="st16" d="M231.6,76.5l19.2,31.9c15.4,25.7,7.1,59.1-18.6,74.5l-34.1,20.5c-1,0.6-2.3,0.3-2.9-0.7l-19.2-31.9
							c-15.5-25.7-7.1-59.1,18.6-74.6l34-20.5C229.7,75.2,231,75.5,231.6,76.5z"/>
					</g>
					<g>
						<path class="st17" d="M225.6,63.3l27,34.5c21.7,27.8,16.8,67.9-11,89.7l-36.9,28.8c-1.1,0.8-2.6,0.6-3.4-0.4l-27-34.5
							c-21.7-27.8-16.8-68,11-89.7l36.8-28.8C223.2,62.1,224.8,62.3,225.6,63.3z"/>
					</g>
					<g>
						<path class="st18" d="M216.7,48.8l36.5,36.5c29.4,29.4,29.4,76.9,0,106.3l-38.9,38.9c-1.1,1.1-3,1.1-4.1,0L173.7,194
							c-29.4-29.4-29.4-77,0-106.3l38.9-38.9C213.7,47.7,215.6,47.7,216.7,48.8z"/>
					</g>
				</g>
				<g>
					<g>
						<path class="st3" d="M208-37l2.3-3.9c1.8-3.1,5.8-4.2,9-2.4l4.2,2.4c0.1,0.1,0.2,0.2,0.1,0.3l-2.3,3.9c-1.8,3.1-5.8,4.2-9,2.4
							l-4.2-2.4C208-36.7,208-36.9,208-37z"/>
					</g>
					<g>
						<path class="st4" d="M206.5-37.8l3.2-4.2c2.6-3.4,7.4-4.1,10.8-1.5l4.5,3.4c0.1,0.1,0.2,0.3,0.1,0.4l-3.2,4.2
							c-2.6,3.4-7.4,4.1-10.8,1.5l-4.5-3.4C206.4-37.5,206.4-37.7,206.5-37.8z"/>
					</g>
					<g>
						<path class="st5" d="M204.8-39l4.3-4.5c3.5-3.6,9.2-3.7,12.8-0.2l4.8,4.6c0.1,0.1,0.1,0.4,0,0.5l-4.3,4.5
							c-3.5,3.6-9.2,3.7-12.9,0.2l-4.8-4.6C204.7-38.6,204.7-38.8,204.8-39z"/>
					</g>
					<g>
						<path class="st6" d="M203-40.6l5.7-4.6c4.6-3.7,11.3-3,15,1.6l4.9,6.1c0.1,0.2,0.1,0.4-0.1,0.6l-5.7,4.6
							c-4.6,3.7-11.3,3-15-1.6l-4.9-6.1C202.8-40.2,202.8-40.4,203-40.6z"/>
					</g>
					<g>
						<path class="st7" d="M201.1-42.7l7.3-4.6c5.9-3.7,13.6-1.9,17.3,4l4.9,7.8c0.1,0.2,0.1,0.5-0.2,0.7l-7.3,4.6
							c-5.9,3.7-13.7,1.9-17.3-4l-4.9-7.8C200.8-42.3,200.9-42.6,201.1-42.7z"/>
					</g>
					<g>
						<path class="st8" d="M199.2-45.5l9.2-4.3c7.4-3.4,16.2-0.2,19.7,7.2l4.6,9.8c0.1,0.3,0,0.6-0.3,0.8l-9.2,4.3
							c-7.4,3.5-16.2,0.2-19.7-7.2l-4.6-9.8C198.8-45,198.9-45.3,199.2-45.5z"/>
					</g>
					<g>
						<path class="st9" d="M197.4-49l11.4-3.7c9.1-3,19,2,21.9,11.2l3.9,12.1c0.1,0.3-0.1,0.7-0.4,0.8l-11.3,3.7
							c-9.2,3-19-2-22-11.2l-3.9-12.1C196.8-48.5,197-48.9,197.4-49z"/>
					</g>
					<g>
						<path class="st10" d="M195.8-53.3l13.8-2.7c11.1-2.2,21.8,5.1,24,16.2l2.9,14.7c0.1,0.4-0.2,0.8-0.6,0.9L222-21.5
							c-11.1,2.2-21.9-5.1-24-16.2l-2.9-14.7C195-52.8,195.3-53.3,195.8-53.3z"/>
					</g>
					<g>
						<path class="st11" d="M194.5-58.7l16.5-1.1c13.3-0.9,24.8,9.1,25.7,22.3l1.2,17.6c0,0.5-0.3,1-0.9,1l-16.5,1.1
							c-13.3,0.9-24.8-9.1-25.7-22.4l-1.2-17.6C193.6-58.2,194-58.6,194.5-58.7z"/>
					</g>
					<g>
						<path class="st12" d="M193.8-65l19.4,1c15.6,0.8,27.6,14.2,26.8,29.8l-1.1,20.7c0,0.6-0.5,1.1-1.1,1l-19.4-1
							c-15.6-0.8-27.7-14.2-26.8-29.8l1.1-20.7C192.7-64.6,193.2-65.1,193.8-65z"/>
					</g>
					<g>
						<path class="st13" d="M193.8-72.6l22.5,4c18.1,3.2,30.2,20.5,27.1,38.6l-4.2,24c-0.1,0.7-0.8,1.2-1.5,1l-22.5-4
							c-18.1-3.2-30.3-20.5-27.1-38.7l4.2-24C192.5-72.3,193.1-72.7,193.8-72.6z"/>
					</g>
					<g>
						<path class="st14" d="M195-81.4l25.7,7.9c20.7,6.3,32.4,28.3,26,49l-8.4,27.5c-0.2,0.8-1.1,1.2-1.9,1L210.8-4
							c-20.7-6.3-32.4-28.3-26.1-49l8.4-27.4C193.4-81.2,194.2-81.7,195-81.4z"/>
					</g>
					<g>
						<path class="st15" d="M197.6-91.6l28.9,12.9C249.9-68.3,260.3-41,250-17.7l-13.7,30.9c-0.4,0.9-1.4,1.3-2.3,0.9L205,1.2
							c-23.3-10.4-33.8-37.7-23.4-61l13.7-30.8C195.7-91.6,196.8-92,197.6-91.6z"/>
					</g>
					<g>
						<path class="st16" d="M202.2-103l31.9,19.2c25.7,15.4,34,48.8,18.6,74.5l-20.5,34.1c-0.6,1-1.9,1.3-2.9,0.7L197.5,6.3
							c-25.7-15.5-34-48.8-18.6-74.6l20.5-34C199.9-103.3,201.2-103.6,202.2-103z"/>
					</g>
					<g>
						<path class="st17" d="M209.1-115.7l34.5,27c27.8,21.7,32.7,61.9,11,89.7l-28.8,36.9c-0.8,1.1-2.4,1.3-3.4,0.4l-34.5-27
							c-27.8-21.7-32.8-61.9-11-89.7l28.8-36.8C206.5-116.4,208-116.6,209.1-115.7z"/>
					</g>
					<g>
						<path class="st18" d="M219-129.6l36.5,36.5c29.4,29.4,29.4,76.9,0,106.3l-38.9,38.9c-1.1,1.1-3,1.1-4.1,0l-36.4-36.4
							c-29.4-29.4-29.4-77,0-106.3l38.9-38.9C216.1-130.7,217.9-130.7,219-129.6z"/>
					</g>
				</g>
			</g>
		</g>
	</g>
</g>
</svg>
