<?xml version="1.0" encoding="utf-8"?>
<!-- Generator: Adobe Illustrator 26.5.0, SVG Export Plug-In . SVG Version: 6.00 Build 0)  -->
<svg version="1.1" id="Layer_1" xmlns="http://www.w3.org/2000/svg" xmlns:xlink="http://www.w3.org/1999/xlink" x="0px" y="0px"
	 viewBox="0 0 432 432" style="enable-background:new 0 0 432 432;" xml:space="preserve">
<style type="text/css">
	.st0{fill:#E6E6E6;}
</style>
<path class="st0" d="M153.6,110.3l-11.5,2c0-9.8-4.5-14.7-13.6-14.7c-5.6,0-8.4,2.3-8.4,6.9c0,3.4,4.8,7,14.4,10.9
	c14.7,6,22.1,13.7,22.1,22.9c0,14.8-9.4,22.1-28.1,22.1c-19.8,0-29.7-7.4-29.7-22.1l12.2-2.5c-0.2,1.4-0.3,2.8-0.3,4
	c0,3.8,1.6,7.1,4.8,9.9c3.2,2.8,6.9,4.2,11.3,4.2c5.7,0,8.6-2.4,8.6-7.3c0-3.2-4.6-6.8-13.8-10.8c-13.9-6-20.8-13.6-20.8-23
	c0-6.2,2.7-11.3,8-15.2c5.3-4,12.2-5.9,20.5-5.9C144,91.8,152.1,98,153.6,110.3z"/>
<path class="st0" d="M156.6,159.1c2.4,0.9,4.4-1.1,6-1.1c0.4-0.1,0.8-0.3,1.2-0.4c0.8-0.3,1.5-0.6,2.3-0.9c0.2-0.4,0.2-0.8,0.2-1.2
	c0-13.5,0-62,0-62c7.4,0,15.3-0.6,23.7-1.8v67.1c0,0-0.4,0-1.1,0C179,159,168,159,157.6,159C157,159.1,156.6,159.1,156.6,159.1z
	 M178.2,68c7.4,0,11,2.9,11,8.6s-3.7,8.6-11,8.6c-7.4,0-11-2.9-11-8.6S170.8,68,178.2,68z"/>
<path class="st0" d="M251.2,331.3c-3.5-0.2-8.6-0.9-14.2-3.3c-3.3-1.4-6-3.1-8.1-4.6c1-0.8,2-1.7,2.9-2.6c0.4-0.3,0.7-0.7,1.2-1
	c1.7-1.4,3.3-1.7,5-2.9c0.3-0.2,0.7-0.5,1-0.9c-1-2-4-4-3-4c7-3,15,0,23-1c-8-2-22,2-24.4-10.2c0.2-0.4,0.4-0.9,0.6-1.3
	c0.7-1.3,1.6-2.6,2.6-4c0.3-0.4,0.6-0.8,0.9-1.3C242,291,249,293,249,288c1-1-2-3-3.4-3.9c-0.3-0.4-0.7-0.8-1.3-1.2
	c1.6-3.9,8.6-1.9,8.6-4.9s-7-2-9.8-4.8c-0.7-0.5-1.1-0.9-1.6-1.1c-1.4-0.8-2.5-0.5-3.6,0.2c-0.4,0.2-0.7,0.5-0.9,0.8
	C241,278,248,275,253,277c-7,6-18-1-25.3,6c0.2,0.5,0.4,0.9,0.5,1.3c0.3,1.6-0.6,2.6-3.5,4.5c-0.2,0.3-0.4,0.6-0.5,0.9
	c-0.1,0.3-0.2,0.6-0.4,0.9c-0.2,0.4-0.3,0.8-0.4,1.2c-2.4,3.2,0.6,7.2-1.9,10.2c-0.3,0.3-0.7,0.5-1,0.7c-1.8,1-4,1.5-5.5,3.3
	c-0.2,0.2-0.3,0.5-0.4,0.7c3.1,2.3,7,2,10.7,2.6c0.5,0.1,1.1,0.2,1.6,0.3c1.1,0.3,2.1,0.3,3.1,0.3c-2,0,0,3-2.3,2.7
	c-0.4,0.2-0.9,0.3-1.3,0.5c-4.1,1-9.2-0.8-11.7,3.4c0.1,0.3,0.2,0.6,0.3,1c0.1,0.3,0.2,0.7,0.4,1c-0.4-0.4-0.9-0.9-1.5-1.3
	c-0.3-0.2-0.6-0.5-0.9-0.7c-1,0.5-2-0.5-1-1.5c4.5-2.2,9.6-1.1,13.9-2.1c0.5-0.1,1-0.2,1.4-0.4c1.7,0.5,1.7-2.5,2.7-2.5
	c-1,0-2,0-3.3,0.4c-0.5-0.1-1.1-0.2-1.6-0.2c-7.1-0.9-13.7-0.5-21-2.2c7.4,3.7,14.9,0.5,22.3,2.5c0.6,0.1,1.1,0.3,1.7,0.5
	c-0.5-0.1-1-0.3-1.5-0.4c-9.7-2.8-21,3.1-30.1-4c0.1-0.4,0.1-0.7,0-1.2c0.3-0.4,0.6-0.8,0.8-1.2c0.3-0.4,0.5-0.8,0.8-1.1
	c0.2-0.3,0.5-0.6,0.7-0.9c5.3-3,14.3-3,8-9.7c0.2-0.3,0.4-0.7,0.6-1c0.3-0.7,0.6-1.5,0.7-2.3c0.3-2.1-0.2-3.5-0.7-4.8
	c-0.2-0.4-0.3-0.9-0.4-1.3c15.1-7,31.1-2,46.1-5c-12-4-25,0-37-4c4,1,8-1,12.4-1c0.5-0.1,1-0.3,1.5-0.4c1.1-0.4,2.1-0.9,3.1-1.6
	c-6-1-12,1-16.5-3.7c0.3-0.5,0.5-1,0.7-1.4c0.8-2.9,6.8-2.9,5.8-4.9c0-3-6-2-8-4.9c0-0.4,0-0.7,0-1.1c0-1.9-0.1-3.9-0.1-6.1
	c6,0.2,9.4,2,11.5,3.6c1,0.8,1.9,1.8,3.7,2.5c2.8,1.1,5.7,0.8,7.7,0.2c-1.4,3.9-2.7,7.7-4.1,11.6c6-0.6,9.9-2.3,12.4-3.8
	c1.1-0.6,2.5-1.6,4.7-1.9c0.8-0.1,4.4-0.7,7.3,1.4c3,2.2,2.1,4.9,5,6.6c2.2,1.2,3.5,0,5.2,1.3c0.4,0.3,0.7,0.6,0.9,1
	c0.2,0.4,0.4,0.8,0.4,1.2C266,275,261,274,257,277c6,2,12,0,17,3c1,1,0,3-1.6,2.1c-0.5,0.1-1,0.2-1.6,0.3c-2.2,0.4-4.5,0.6-6.2,1.6
	c-0.5,0.2-0.9,0.3-1.3,0.5c-0.4,0.2-0.8,0.3-1.2,0.5c-0.7,0.3-1.1,0.7-1.1,1c-0.5,1.2-0.4,2.1,0.1,2.6c0.5,0.6,1.3,0.9,2.3,1.2
	c1.9,0.6,4.1,1.1,4.6,3.1c-0.2,0.7-0.4,1.2-0.7,1.5c-1.6,1.9-4.7,0.7-7.1,2.2c-0.4,0.3-0.7,0.7-0.9,1.2s-0.4,1.2-0.4,2
	c0.1,0.5,0.3,1,0.5,1.6c0.1,0.3,0.2,0.6,0.4,0.9c0.9,1,2.5,2.3,3.2,3.3c0.3,0.5,0.5,0.9,0.1,1.3c-1,3-5,5-5.3,9.2
	c-0.1,0.4-0.3,0.7-0.5,1C254,319,251,319,248,320c-4,2,0,5,1.3,7.6c0.2,0.5,0.4,1.1,0.8,1.7C250.4,329.9,250.8,330.6,251.2,331.3z"
	/>
<path class="st0" d="M336.7,93.4l-13.5,16.9l19.5,48.5h-25l-11.4-28.8l-4.4,5.3v23.5h-23.7V70.3c7,0,14.9-0.5,23.7-1.4v55.5
	l25.3-30.8H336.7z"/>
<path class="st0" d="M155.4,168.7C155,166,159,166,158,165c-2-4-8-1-12-5.2c-0.4-0.3-0.8-0.6-1.3-0.8s-0.9-0.5-1.3-0.7
	c-0.5-0.1-1-0.3-1.6-0.3s-1.1-0.1-1.7-0.2c-0.6-0.1-1.1-0.3-1.7-0.4c-3-0.6-6.3-0.9-10-0.9c-14.1,0-23.1,3.7-27.2,11.1
	c-0.2,0.4-0.4,0.9-0.3,1.3c1.1,3,6.1,2,6.1,4c0,3-8,0-8.3,5.7c0,0,0.2,0,0.5,0.1c2.3,0.5,11.7,2.4,11.7,2.4
	c-0.1-0.7-0.2-1.4-0.2-2.1c0-0.3,0-0.7,0-1c2.3-4.1,8.3-1.1,9.3-5.1c0-3-6-1-5.7-4.7c0.3-0.4,0.7-0.7,1.1-1.1
	c3.2-2.8,6.9-4.2,11.3-4.2c3.6,0,6,0.9,7.4,2.8c0.3,0.4,0.5,0.8,0.7,1.3c0.2,0.9,0.2,1.9,0.5,3.2c0,0.5-0.1,1.1-0.4,1.7
	c-1.3,2.8-5.8,5.8-13.5,9.1c-0.7,0.3-1.3,0.6-1.9,0.9h23.7c0.5,0,0.7,0.3,0.9,0.6c4-0.2,8.2,0.1,12.1-2.3c0.3-0.5,0.4-1,0.6-1.5
	C165,172,176,177,185,174c-8.4-2.5-17.5-0.1-25.5-2.8c-1-0.3-2-0.8-2.9-1.3C156.2,169.6,155.7,169.2,155.4,168.7z"/>
<path class="st0" d="M118.7,219.3c-1.3,0-1.3-2,0-2h3.1c-1.1-1.1-1.6-2.7-1.6-4.7c0-1.7,1.2-3.4,3.6-5.3c0.4-0.3,0.8-0.6,1.3-0.9
	c-1-3.4-4-2.4-5-3.4c7-5,15,0,22.5-5.2c0.3-0.2,0.6-0.3,0.9-0.5c1.1-0.7,2.2-1.4,3.2-2.1c-8.9,0.1-17.9,0.4-26.8,0.9
	c-1.3,0.1-1.3-1.9,0-2c9.8-0.6,19.7-0.9,29.5-1c1.8-1,4.9-0.6,5.8-3.2c0-2-3-2-4.4-2.9c-0.4-0.2-0.9-0.3-1.3-0.4
	c-4.1-0.8-9.3,1-12.3-2.7c0.1,0,0.2-0.1,0.2-0.1h-21.6c-1.5,0.8-3,1.7-4.3,2.6c-0.5,0.3-0.9,0.7-1.3,1c1,2.5,5,2.5,4,4.5
	c-1,5-8,2-12.2,5.5c-0.2,0.4-0.3,0.8-0.4,1.2c-0.1,0.4-0.2,0.8-0.3,1.2c-0.1,0.4-0.2,0.9-0.3,1.3c1.2,5.7,9.2,1.7,9.2,5.7
	c0,3-6,0-7.4,5.5c0.2,0.4,0.4,0.9,0.7,1.3c1.3,2,3.1,3.9,5.3,5.5c5.3,4,12.2,5.9,20.5,5.9c6.7,0,12-1.2,16-3.7
	c0.4-0.3,0.9-0.6,1.3-0.9c0.9-0.4,1.9-0.8,3-1.3H118.7z"/>
<path class="st0" d="M152.4,217.3c1.3-1.3,1.8-3,0.2-5.4c0.1-0.5,0.2-1.1,0.3-1.6c0.3-1.1,0.5-2.3,0.6-3.5c0,0-6.5-1.1-9.7-1.7
	c-1.1-0.2-1.8-0.3-1.8-0.3c0,0.3,0,0.7,0,1c0,1.3-0.2,2.5-0.4,3.6c-0.1,0.6-0.2,1.1-0.4,1.6c2.6,2,6.6,3,10.6,4
	c-1.8,1-3.6,1.7-5.5,2.3H152.4z"/>
<path class="st0" d="M188.8,235.8c-0.4-0.3-0.8-0.5-1.3-0.9c-0.3-0.3-0.6-0.7-1-0.9c-1.8-1.4-4.6-2.1-8.3-2.1c-4.4,0-7.5,1-9.3,3.1
	c-0.3,0.3-0.6,0.7-1,1.1c-2,1-4,2-4.6,4.4c0,0.6,0.4,1.1,0.9,1.6c0.7,1.9,2.7,1.9,3.8,2.7c0.3,0.4,0.6,0.8,0.9,1.1
	c1.8,2.1,4.9,3.1,9.3,3.1c4.4,0,7.5-1,9.3-3.1c0.3-0.3,0.5-0.7,0.6-1.1C181,240,173,244,166,241C173,236,182,242,188.8,235.8z"/>
<path class="st0" d="M190.1,216.4C196,213,202,215,208,212c-1.2-1.2-2.7-1.9-4.2-2.3c-0.6-0.1-1.2-0.2-1.9-0.3
	c-3.4-0.5-6.7-0.4-9.9-0.2c0,0.5-0.5,0.9-1,0.9h-6.2c-0.5,0-0.8-0.3-0.9-0.7c-2.6-0.1-5.2-0.5-7.9-1.4c0.4-0.3,0.8-0.5,1.3-0.7
	c0.4-0.2,0.9-0.3,1.4-0.5c6.4-0.8,14.4-1.8,11.3-9.7c0-0.6,0-1.1,0-1.7c2.1-3.4,1.1-5.4,0-8.5c0-0.6,0-1.1,0-1.7v-6.5
	c0-0.4,0-0.8,0-1.2c0.9-2.1,1-3.8,0.4-6.3c-0.1-0.5-0.3-1-0.4-1.6c3-3.6,12-0.6,11-5.6c-1-2-7-1-11-4.2c-0.1-0.4-0.1-0.7-0.1-0.9
	c0-0.5,0-0.8,0-0.8s-1.6,0-4,0c-0.3,0-0.6,0-0.9,0c-6-0.1-12-0.1-18.2-0.1c-0.6,0-1.1,0-1.7,0s-1.1,0-1.7,0c-4.4-1-8.4,1-11.4,3
	c6,1.5,12,2,18,2.1c0.6,0,1.1,0,1.7,0C182,164,192,162,202,164c-11,3-22-1-32.8,2.2c-0.5,0.2-1,0.4-1.5,0.6c-0.5,0.3-1,0.5-1.5,0.9
	l0,1C172,173,181,170,187,174c-7,3-15,0-20.8,4.8c-0.5,0.4-0.7,0.9-1,1.3c-6.9,3.3-14.4,3.1-21.3,3.6c-0.2,0.1-0.4,0.3-0.6,0.3h-2.3
	c-0.3,0-0.6,0.1-0.9,0.1c5,2.5,12,1.1,17.7,1.8c0.6,0.1,1.1,0.2,1.7,0.3c3.3,1.5,7,2,10.8,2.2c0.5,0,1.2,0.1,2,0.4
	C178,190,183,196,189,196c0-1,0-3,0-4c-1,3,2,5,3,8c-8,2-14-8-22.8-5.2c-0.5,0.2-1,0.4-1.5,0.6c-0.5,0.2-1,0.5-1.5,0.8v21.1h7.8
	c1.3,0,1.3,2,0,2h-7.8c0,0.3,0,0.7-0.1,1C165,221,164,223,163,224c9,0,18,3,27,1c0-1,0-3-0.1-3.6v-3.7
	C189.9,217.3,189.9,216.9,190.1,216.4z"/>
<path class="st0" d="M297.7,193.9c-2.5,0.3-5.1,0.5-7.6,0.7C292.6,194.5,295.2,194.4,297.7,193.9z"/>
<path class="st0" d="M302.4,235.5C310,232,318,235,326,231c-8-4-16-1-23.7-4.2c-0.2-0.4-0.3-0.8-0.3-1.2v-2.5c-0.9,0-1.8,0-2.8-0.1
	c-10.1-0.3-20.1-0.9-30.1-1.3c-1.9,0.3-3.7,0.8-5.2,2.3c8,4,16,3,23.6,4.9c0.6,0.1,1.2,0.2,1.8,0.2c11.9,1.4,24-0.4,35.6,1.9
	c-15,4-32-3-46.6,5.6v3.5c0,0.6,0,1.2,0,1.7C274,246,268,243,264,247c11,0,21-1,31.6,0.8c0.6,0,1.2,0.1,1.8,0.1
	c5.2,0.3,10-0.3,13.6-3.9c-3-2-7-1-8.9-3.9c0-0.4,0-0.8,0-1.2v-2.5C302.1,236.1,302.1,235.8,302.4,235.5z"/>
<path class="st0" d="M323.3,206.6c0,0,0.1-0.2,0.2-0.6c0.4-0.9,1.2-2.9,2.2-5.5c0.2-0.5,0.4-1.1,0.3-1.6C325,196,318,197,320,194
	s9,0,12.2-4.6c0.1-0.3,0.2-0.6,0.4-1c0.4-0.2,0.9-0.4,1.3-0.6c4.1-1.5,8.6-1.1,13.1-1.8c-0.5-1.5-1.4-2.3-2.5-2.8
	c-0.4-0.2-0.7-0.3-1.1-0.3c-7.4-2.5-15.2-1.3-21.7-4.3c-0.5-0.2-0.9-0.5-1.3-0.7C324,176,328,176,332,176c-4-1-8,1-12,1
	c6,0,13-1,19.1-3c0.5-0.2,1-0.3,1.5-0.5c0.5-0.2,1-0.4,1.5-0.6c0.5-0.1,1.1-0.2,1.7-0.4c4.1-0.8,9.1-1,12.1-2.5c-1-1-3-2-5-2.8
	c-0.5-0.1-1.1-0.2-1.7-0.2c-3.4-0.3-7.2,0.2-8.4-4.1c0.2-0.5,0.4-0.9,0.5-1.4c0.8-2.1,1.4-3.4,1.4-3.4h-25c0,0-1.5,3.7-3.3,8.5
	c-0.1,0.3-0.3,0.6-0.4,1c0.1,0.4,0.1,0.7,0.4,1.1C320,173,328,168,333,174c-7,2-15,0-20.5,3.9c-0.2,0.3-0.3,0.6-0.4,0.9
	c-0.2,0.6-0.5,1.1-0.7,1.5c-0.2,0.3-0.5,0.7-0.8,1.1c-0.3,0.4-0.6,0.8-0.8,1.2c0.1,0.6,0.2,1.1,0.2,1.6c0.1,1.6-0.4,2.8-2.9,2.8
	c-1.3,0-1.8-1.8-2.4-3c-0.3-0.6-0.7-1-1.3-1c0.4-1,1.1-1.6,1.9-2.1s1.7-0.6,2.6-0.8c0.9-0.2,1.7-0.3,2.3-0.6c0.6-0.3,1-0.7,1-1.5
	c2-2,5-1,7-3c-1,0-1,0-2,0c6,0,12,1,17-2c-10-1-21,2-30.5-3.9c-0.3-0.6-0.3-1.1-0.4-1.5c0-5,0-9.5,0-9.5h-23.7c0,0,0,1.5,0,4
	c0,0.5,0,1.1,0,1.7c1.6,2.3,7.6,3.3,6.6,5.3c-3,6-13,2-19.3,4.8c-0.5,0.2-1,0.5-1.4,0.9c-0.5,0.4-0.9,0.8-1.3,1.3c5,1,10,2,15,2
	c-5-2-10,0-14-2c14-2,27,0,41.5-2c0.6,0,1.1-0.1,1.7-0.1c8.3-0.5,16.8,0.1,24.8,0.1c-8,2-16-1-23,4h1c-1-0.2-2-0.3-3.1-0.3
	c-0.5,0-1-0.1-1.6-0.1c-7.3,0.4-15.3,1.4-22.2,2.6c-0.4,0.1-0.9,0.2-1.3,0.4c-0.9,0.3-1.8,0.6-2.7,1.1c-0.6,0.5-0.7,1-0.8,1.4v7.5
	c0,0.4,0,0.9,0,1.3c-0.6,0.4-1.1,0.8-1.5,1.2c10.1-0.2,20.3-0.8,30.3-2.5c1.3-0.2,1.8,1.7,0.5,1.9c-3.1,0.5-6.2,0.9-9.3,1.3
	c-6.6,1.7-13.6,1.4-20.1,1.9c1.4-0.4,2.9-0.7,4.4-0.8c-2.5,0.1-4.9,0.2-7.4,0.2c-1.1,2-0.3,3.9,3,6c0.2,0.4,0.3,0.9,0.3,1.3v3.5
	c0,0.6,0,1.2-0.3,1.7c-3.1,2.4-2.1,6.4,0.3,8.5c0,0.6,0,1.1,0,1.7c0,0.5,0,0.9,0,1.4c-0.4,0.4-0.9,0.7-1.3,0.9
	c8.4,0.4,16.7,0.8,25.1,1.1v-4.3C295,211,286,215,278,212c0.3-0.2,0.7-0.5,1.1-0.7c13.4,4.3,27.7,0,41.6,4.8c0.3,0.1,0.6,0.3,1,0.4
	c4.4,5.4,10.4,4.4,15,7c0,0,0.5,0,0.9,0c0.3-0.4,0.4-0.5,0-0.6c0.8,0,1.6,0.2,2.4,1c-3-4-7-5-10.1-8.9c-0.4-0.4-0.8-0.7-1.2-1
	c-2.9-1.7-7.1-0.5-9.7-3.2C319,210,323,210,323.3,206.6z M275,197c0.5-0.3,1-0.5,1.6-0.7c1.4,0.7,2.8,1.3,4.3,1.6
	C278.9,197.7,276.9,197.4,275,197z M280.5,210.7c6.7-2.6,15.3,0.8,21.4-3.8c0.2-0.5,0.2-1,0.2-1.5v-2.9c0-0.3,0-0.7-0.1-1
	c-4.5-1.7-9.1-2.3-13.6-2.7c7.1,0,14.5-1.2,20.9,2.9c0.3,0.3,0.5,0.6,0.8,0.9c0.9,1.1,1.9,2.3,2.9,3.5c0.2,0.3,0.5,0.6,0.7,0.9
	C302.8,211.6,291.7,209.4,280.5,210.7z"/>
<path class="st0" d="M337.3,223c0.1,0,0.1,0,0.2,0C337.5,223,337.4,223,337.3,223z"/>
<text transform="matrix(1 0 0 1 -250.4648 278.8408)" style="display:none;"><tspan x="0" y="0" style="display:inline; font-family:'BritannicBold'; font-size:14px;">1.Word Selected:Sink</tspan><tspan x="0" y="16.8" style="display:inline; font-family:'BritannicBold'; font-size:14px;">2.The composition plays on the word </tspan><tspan x="0" y="33.6" style="display:inline; font-family:'BritannicBold'; font-size:14px;">sink where onw can see the reflection</tspan><tspan x="0" y="50.4" style="display:inline; font-family:'BritannicBold'; font-size:14px;">of the word showing that its above so-</tspan><tspan x="0" y="67.2" style="display:inline; font-family:'BritannicBold'; font-size:14px;">me body of water and the ‘n’ is below </tspan><tspan x="0" y="84" style="display:inline; font-family:'BritannicBold'; font-size:14px;">thw horizon line indicating thet the </tspan><tspan x="0" y="100.8" style="display:inline; font-family:'BritannicBold'; font-size:14px;">letter has sunken.</tspan></text>
</svg>
